<?xml version="1.0" encoding="UTF-8"?>
<svg width="22px" height="22px" viewBox="0 0 22 22" version="1.1" xmlns="http://www.w3.org/2000/svg" xmlns:xlink="http://www.w3.org/1999/xlink">
    <title>链接备份</title>
    <defs>
        <path d="M11.4980843,1.00378344 C10.5635339,1.00378344 9.68515347,1.36766472 9.02457733,2.02838475 L6.40098014,4.65193398 C5.74014819,5.31211039 5.3764108,6.19095453 5.3764108,7.12496127 C5.3764108,8.32101434 5.97953787,9.42164411 6.99000478,10.0700205 C7.14316494,10.16813 7.32157198,10.1948799 7.48624433,10.1579129 C7.6493977,10.1220173 7.79876844,10.0239558 7.89617439,9.87177092 C7.99396409,9.71902648 8.02088983,9.54167473 7.98461044,9.37770589 C7.94869878,9.21375305 7.85047737,9.06313517 7.69805272,8.96561728 C7.06572944,8.5599883 6.68820939,7.87195878 6.68820939,7.12496125 C6.68820939,6.54084528 6.91554327,5.9921453 7.32855923,5.57951306 L9.95226836,2.95596383 C10.3649965,2.54278797 10.9141602,2.315582 11.4981003,2.315582 C12.703539,2.315582 13.684426,3.29621313 13.684426,4.50138003 C13.684426,5.08546402 13.4569322,5.63419598 13.0440761,6.04732388 L11.7995279,7.29214389 C11.6683848,7.42343088 11.6044762,7.59596989 11.6074182,7.76801325 C11.6103921,7.93196609 11.6743968,8.09432002 11.7995279,8.21973898 C11.9276011,8.34779616 12.0954553,8.41157692 12.2633255,8.41157692 C12.4313235,8.41157692 12.5991778,8.34779617 12.7269791,8.21973898 L13.9715273,6.97491897 C14.6323752,6.31471059 14.9962086,5.43591441 14.9962086,4.50138003 C14.9962086,2.57279964 13.4269365,1.00378344 11.4980843,1.00378344 Z M9.00980336,5.9299475 C8.85669117,5.83137433 8.67823616,5.8045765 8.51362777,5.84157542 C8.35057031,5.87743911 8.20108767,5.97606023 8.10366572,6.12771742 C8.00605191,6.28042989 7.97896627,6.45779763 8.01538956,6.62176645 C8.05115731,6.78575127 8.14936273,6.93632119 8.30180338,7.03383906 C8.93427056,7.43950003 9.31177461,8.12751355 9.31177461,8.87454306 C9.31177461,9.45861106 9.08431283,10.007327 8.67139278,10.4204869 L6.04771566,13.0440681 C5.6349555,13.4566844 5.0858558,13.684418 4.50186773,13.684418 C3.29644502,13.684418 2.31557405,12.7032432 2.31557405,11.4981403 C2.31557405,10.9140243 2.54290792,10.3653083 2.95592389,9.95218042 L4.20034417,8.70736041 C4.33148725,8.57661705 4.39550784,8.40351841 4.39254986,8.23152303 C4.38960786,8.06809783 4.32544336,7.90518428 4.20034417,7.7797973 C4.07225502,7.65170814 3.90440083,7.58795936 3.73665855,7.58795936 C3.56853253,7.58795936 3.40083823,7.65170814 3.27287698,7.7797973 L2.02834478,9.02460131 C1.36748084,9.68477772 1.00377544,10.5635899 1.00377544,11.4981563 C1.00377544,13.4266727 2.57304747,14.9962325 4.50186773,14.9962325 C5.43641811,14.9962325 6.31470263,14.6323992 6.97526277,13.9711356 L9.59884398,11.3475543 C10.2597079,10.6873779 10.6235412,9.8085338 10.6235412,8.87457503 C10.6235412,7.67848998 10.0203182,6.57784422 9.00980336,5.9299475 Z" id="path-1"></path>
        <filter x="-50.0%" y="-35.7%" width="200.1%" height="200.1%" filterUnits="objectBoundingBox" id="filter-2">
            <feOffset dx="0" dy="2" in="SourceAlpha" result="shadowOffsetOuter1"></feOffset>
            <feGaussianBlur stdDeviation="2" in="shadowOffsetOuter1" result="shadowBlurOuter1"></feGaussianBlur>
            <feColorMatrix values="0 0 0 0 0   0 0 0 0 0   0 0 0 0 0  0 0 0 0.5 0" type="matrix" in="shadowBlurOuter1"></feColorMatrix>
        </filter>
    </defs>
    <g id="页面-1" stroke="none" stroke-width="1" fill="none" fill-rule="evenodd">
        <g id="链接备份" transform="translate(3.000000, 1.000000)" fill-rule="nonzero">
            <rect id="Rectangle" fill="#000000" opacity="0" x="0" y="0" width="16" height="16"></rect>
            <g id="Shape">
                <use fill="black" fill-opacity="1" filter="url(#filter-2)" xlink:href="#path-1"></use>
                <use fill="#FFFFFF" xlink:href="#path-1"></use>
            </g>
        </g>
    </g>
</svg>