<?xml version="1.0" encoding="UTF-8"?>
<svg width="24px" height="24px" viewBox="0 0 24 24" version="1.1" xmlns="http://www.w3.org/2000/svg" xmlns:xlink="http://www.w3.org/1999/xlink">
    <title>小程序备份</title>
    <defs>
        <path d="M8,0 C3.581722,0 0,3.581722 0,8 C0,12.418278 3.581722,16 8,16 C12.418278,16 16,12.418278 16,8 C16,5.87826808 15.1571453,3.84343678 13.6568542,2.34314575 C12.1565632,0.842854723 10.1217319,0 8,0 Z M12.0112031,7.19040625 C11.6994474,7.69025224 11.2130111,8.05635895 10.6464062,8.21759375 C10.5228505,8.25791109 10.3939502,8.27948401 10.264,8.28159375 C10.0140826,8.28012824 9.81225834,8.07711699 9.81225834,7.82719531 C9.81225834,7.57727363 10.0140826,7.37426239 10.264,7.37279687 C10.2985783,7.3735885 10.3329318,7.36704371 10.3647969,7.35359375 C10.7286927,7.26315563 11.0424529,7.03329304 11.2383906,6.71359375 C11.352384,6.52725365 11.4122241,6.31284634 11.4112031,6.09440625 C11.4112031,5.376 10.7472031,4.784 9.93760938,4.784 C9.65744426,4.78459055 9.38207343,4.85673556 9.13760938,4.99359375 C8.72727502,5.20967374 8.46591035,5.63079811 8.45440625,6.09440625 L8.45440625,9.91040625 C8.44631728,10.697585 8.01123392,11.4182278 7.31840625,11.792 C6.93807564,12.0058425 6.50830552,12.1161809 6.072,12.112 C4.75359375,12.112 3.672,11.12 3.672,9.89279687 C3.6743323,9.5078265 3.78105452,9.13069954 3.98079687,8.80159375 C4.29255264,8.30174776 4.77898894,7.93564105 5.34559375,7.77440625 C5.46929381,7.73468004 5.59810581,7.7131219 5.728,7.71040625 C5.89097573,7.70945056 6.0419821,7.7958488 6.12374709,7.93683279 C6.20551209,8.07781679 6.20551209,8.25179259 6.12374709,8.39277658 C6.0419821,8.53376058 5.89097573,8.62015881 5.728,8.61920312 C5.69342172,8.6184115 5.65906819,8.62495629 5.62720312,8.63840625 C5.26643504,8.73544152 4.95489435,8.9636781 4.75360937,9.27840625 C4.63961603,9.46474635 4.57977589,9.67915366 4.58079687,9.89759375 C4.58079687,10.616 5.24479687,11.208 6.064,11.208 C6.34416512,11.2074094 6.61953594,11.1352644 6.864,10.9984062 C7.27371166,10.7818999 7.53440975,10.3608578 7.54559375,9.89759375 L7.54559375,6.09921875 C7.55444665,5.31141001 7.98998789,4.5904133 8.68320312,4.21601563 C9.05664823,3.99222857 9.48465487,3.87595221 9.92,3.88001563 C11.2384062,3.88001563 12.32,4.87201563 12.32,6.09921875 C12.3176677,6.48418913 12.2109455,6.86131608 12.0112031,7.19042188 L12.0112031,7.19040625 Z" id="path-1"></path>
        <filter x="-43.8%" y="-31.2%" width="187.5%" height="187.5%" filterUnits="objectBoundingBox" id="filter-2">
            <feOffset dx="0" dy="2" in="SourceAlpha" result="shadowOffsetOuter1"></feOffset>
            <feGaussianBlur stdDeviation="2" in="shadowOffsetOuter1" result="shadowBlurOuter1"></feGaussianBlur>
            <feColorMatrix values="0 0 0 0 0   0 0 0 0 0   0 0 0 0 0  0 0 0 0.5 0" type="matrix" in="shadowBlurOuter1"></feColorMatrix>
        </filter>
    </defs>
    <g id="页面-1" stroke="none" stroke-width="1" fill="none" fill-rule="evenodd">
        <g id="小程序备份" transform="translate(4.000000, 2.000000)" fill-rule="nonzero">
            <rect id="Rectangle" fill="#000000" opacity="0" x="0" y="0" width="16" height="16"></rect>
            <g id="Shape">
                <use fill="black" fill-opacity="1" filter="url(#filter-2)" xlink:href="#path-1"></use>
                <use fill="#FFFFFF" xlink:href="#path-1"></use>
            </g>
        </g>
    </g>
</svg>