<?xml version="1.0" encoding="UTF-8"?>
<svg width="24px" height="24px" viewBox="0 0 24 24" version="1.1" xmlns="http://www.w3.org/2000/svg" xmlns:xlink="http://www.w3.org/1999/xlink">
    <title>视频备份</title>
    <defs>
        <path d="M1.125,8.99999719 C1.125,4.65089875 4.65089875,1.125 8.99999719,1.125 C13.3490956,1.125 16.8749944,4.65089875 16.8749944,8.99999719 C16.8749944,13.3490956 13.3490956,16.8749944 8.99999719,16.8749944 C4.65089875,16.8749944 1.125,13.3490956 1.125,8.99999719 M7.2921728,5.44469846 C6.78607298,5.16592355 6.37499812,5.40637348 6.37499812,5.98387326 L6.37499812,12.0155961 C6.37499812,12.5888959 6.78554798,12.8340708 7.2921728,12.5547709 L12.8156958,9.506097 C13.3207456,9.2267971 13.3217956,8.77319728 12.8156958,8.49337237 L7.2921728,5.44469846 Z" id="path-1"></path>
        <filter x="-44.4%" y="-31.7%" width="188.9%" height="188.9%" filterUnits="objectBoundingBox" id="filter-2">
            <feOffset dx="0" dy="2" in="SourceAlpha" result="shadowOffsetOuter1"></feOffset>
            <feGaussianBlur stdDeviation="2" in="shadowOffsetOuter1" result="shadowBlurOuter1"></feGaussianBlur>
            <feColorMatrix values="0 0 0 0 0   0 0 0 0 0   0 0 0 0 0  0 0 0 0.5 0" type="matrix" in="shadowBlurOuter1"></feColorMatrix>
        </filter>
    </defs>
    <g id="页面-1" stroke="none" stroke-width="1" fill="none" fill-rule="evenodd">
        <g id="视频备份" transform="translate(3.000000, 1.000000)" fill-rule="nonzero">
            <rect id="Rectangle" fill="#000000" opacity="0" x="0" y="0" width="18" height="18"></rect>
            <g id="Shape">
                <use fill="black" fill-opacity="1" filter="url(#filter-2)" xlink:href="#path-1"></use>
                <use fill="#FFFFFF" xlink:href="#path-1"></use>
            </g>
        </g>
    </g>
</svg>