<?xml version="1.0" encoding="UTF-8"?>
<svg width="75px" height="75px" viewBox="0 0 75 75" version="1.1" xmlns="http://www.w3.org/2000/svg" xmlns:xlink="http://www.w3.org/1999/xlink">
    <title>w</title>
    <g id="页面-1" stroke="none" stroke-width="1" fill="none" fill-rule="evenodd">
        <g id="w">
            <rect id="矩形备份-4" fill="#5C76B8" x="0" y="0" width="75" height="75"></rect>
            <path d="M59.345839,14 C57.8622101,14 55.6111869,15.1255117 55.6111867,17.3765349 L55.6111867,46.2305593 L38.728513,29.3478856 L38.3192359,29.3478856 L37.9611187,28.9897682 C37.6030013,28.9897682 36.835607,28.6316508 36.0682127,28.9897682 L34.9427012,28.9897682 C34.5845838,28.9897682 34.5845838,29.3478856 34.5845838,29.3478856 L18.1111867,46.5886767 L18.1111867,17.7346523 C18.1111867,15.1255117 15.8601635,14.3581174 14.3765347,14.3581174 C12.8929058,14.3581174 11,15.1255117 11,17.7346523 L11,56.3601638 C11,57.8437926 12.1255117,59.3785812 13.6091404,59.7366986 C14.3765347,59.7366986 15.5020462,59.7366986 16.2182809,58.9693043 L37.1937244,38.3519783 L58.5784447,58.9693043 C58.9365621,59.3274217 59.345839,59.3274217 59.345839,59.7366986 C59.7039564,59.7366986 60.1132333,60.0948158 60.4713505,60.0948158 C61.9549794,60.0948158 63.489768,58.6111869 63.489768,56.7182812 L63.489768,17.3765349 C63.0804911,14.7162348 60.8294679,14 59.345839,14 L59.345839,14 Z" id="路径" fill="#FFFFFF" fill-rule="nonzero"></path>
        </g>
    </g>
</svg>