<?xml version="1.0" encoding="UTF-8"?>
<svg width="16px" height="16px" viewBox="0 0 16 16" version="1.1" xmlns="http://www.w3.org/2000/svg" xmlns:xlink="http://www.w3.org/1999/xlink">
    <title>3.数据录入/1.Checkbox多选框/Z#/Icon/未选中备份 8</title>
    <g id="页面-1" stroke="none" stroke-width="1" fill="none" fill-rule="evenodd">
        <g id="客服管理-弹窗" transform="translate(-514.000000, -358.000000)">
            <g id="编组-4" transform="translate(160.000000, 77.000000)">
                <g id="Group-11" transform="translate(24.000000, 160.000000)">
                    <g id="4.数据展示/4.Table表格/列/1.文字-Copy-4备份-31" transform="translate(314.000000, 102.000000)">
                        <g id="3.数据录入/1.Checkbox多选框/Z#/Icon/未选中备份-8" transform="translate(16.000000, 19.000000)">
                            <rect id="BG" fill="#1890FF" x="0" y="0" width="16" height="16" rx="8"></rect>
                            <path d="M11.7702533,5.254 L7.55825331,11.094 C7.30425331,11.448 6.77825331,11.448 6.52425331,11.094 L4.03025331,7.638 C3.95425331,7.532 4.03025331,7.384 4.16025331,7.384 L5.09825331,7.384 C5.30225331,7.384 5.49625331,7.482 5.61625331,7.65 L7.04025331,9.626 L10.1842533,5.266 C10.3042533,5.1 10.4962533,5 10.7022533,5 L11.6402533,5 C11.7702533,5 11.8462533,5.148 11.7702533,5.254 Z" id="Path" fill="#FFFFFF"></path>
                        </g>
                    </g>
                </g>
            </g>
        </g>
    </g>
</svg>