<?xml version="1.0" encoding="UTF-8"?>
<svg width="24px" height="24px" viewBox="0 0 24 24" version="1.1" xmlns="http://www.w3.org/2000/svg" xmlns:xlink="http://www.w3.org/1999/xlink">
    <title>编辑</title>
    <g id="页面-1" stroke="none" stroke-width="1" fill="none" fill-rule="evenodd">
        <g id="客服管理" transform="translate(-800.000000, -227.000000)" fill-rule="nonzero">
            <g id="Group-8" transform="translate(320.000000, 160.000000)">
                <g id="编辑" transform="translate(480.000000, 67.000000)">
                    <rect id="矩形" fill="#000000" opacity="0" x="0" y="0" width="24" height="24"></rect>
                    <path d="M11.3257473,16.3104042 L5.88528574,19.0014423 C5.27223861,19.2854078 4.78127012,18.7360539 5.00950412,18.1230068 L7.69788831,12.6798914 C7.74300433,12.4463496 7.83323638,12.2181156 8.01635435,12.0349976 L15.5401147,4.50592966 L3.75156324,4.50592966 C2.78554958,4.50592966 2,5.28882534 2,6.25749289 L2,20.2673448 C2,21.2333585 2.78289569,22.018908 3.75156324,22.018908 L17.7614153,22.018908 C18.727429,22.018908 19.5129786,21.2360123 19.5129786,20.2673448 L19.5129786,8.44694692 L11.9706411,15.9919382 C11.7875231,16.1750562 11.561943,16.2652882 11.3257473,16.3104042 Z M6.19844402,17.3719577 C6.0551343,17.6585772 6.3311382,17.9531582 6.63633483,17.8098485 L9.9961516,15.7743197 L8.23131893,14.0094871 L6.19844402,17.3719577 L6.19844402,17.3719577 Z M19.000779,7.19962159 L19.5129786,6.68742204 L19.5129786,6.25749289 C19.5129786,5.29147923 18.7300829,4.50592966 17.7614153,4.50592966 L17.2969857,4.50592966 L16.8352099,4.9703593 L19.000779,7.19962159 Z M8.89478986,12.916087 C9.12833163,13.1496288 10.2668477,14.2907988 11.0922056,15.1135027 L18.1223435,8.08071097 L15.9090045,5.89656471 L8.89478986,12.916087 Z M21.6360855,4.56166122 L19.4386698,2.36424553 C18.9530091,1.87858482 18.1674595,1.87858482 17.6817988,2.36424553 L15.5401147,4.50858354 L17.2969857,4.50858354 L18.1196896,3.68322572 C18.361193,3.44172231 18.7566217,3.44172231 18.9981251,3.68322572 L20.3171053,5.00220591 C20.5586087,5.24370932 20.5586087,5.63913799 20.3171053,5.8806414 L19.5103247,6.68742204 L19.5103247,8.44694692 L21.6334316,6.32118609 C22.1217462,5.83552538 22.1217462,5.04732193 21.6360855,4.56166122 L21.6360855,4.56166122 Z" id="形状" fill="#7E7E7E"></path>
                </g>
            </g>
        </g>
    </g>
</svg>