<?xml version="1.0" encoding="UTF-8"?>
<svg width="12px" height="12px" viewBox="0 0 12 12" version="1.1" xmlns="http://www.w3.org/2000/svg" xmlns:xlink="http://www.w3.org/1999/xlink">
    <title>编组</title>
    <g id="页面-1" stroke="none" stroke-width="1" fill="none" fill-rule="evenodd">
        <g id="知识库2" transform="translate(-333.000000, -326.000000)">
            <g id="编组-4" transform="translate(297.000000, 232.000000)">
                <g id="编组-5" transform="translate(24.000000, 24.000000)">
                    <g id="二级导航_选中" transform="translate(0.000000, 56.000000)">
                        <g id="编组" transform="translate(12.000000, 14.000000)">
                            <rect id="矩形" x="0" y="0" width="12" height="12"></rect>
                            <g id="drag" transform="translate(2.718750, 0.750000)" fill="#1773FA" fill-rule="nonzero">
                                <path d="M0,1.00488281 C0,0.44990625 0.44990625,0 1.00488281,0 C1.55985938,0 2.00976562,0.44990625 2.00976562,1.00488281 C2.00976562,1.55985938 1.55985938,2.00976562 1.00488281,2.00976562 C0.44990625,2.00976562 0,1.55985938 0,1.00488281 Z M0,5.25 C0,4.69502344 0.44990625,4.24511719 1.00488281,4.24511719 C1.55985938,4.24511719 2.00976562,4.69502344 2.00976562,5.25 C2.00976562,5.80497656 1.55985938,6.25488281 1.00488281,6.25488281 C0.44990625,6.25488281 0,5.80497656 0,5.25 Z M0,9.49511719 C0,8.94012891 0.44990625,8.49023438 1.00488281,8.49023438 C1.55985938,8.49023438 2.00976562,8.94012891 2.00976562,9.49511719 C2.00976562,10.0501055 1.55985938,10.5 1.00488281,10.5 C0.44990625,10.5 0,10.0501055 0,9.49511719 Z M4.55273438,1.00488281 C4.55273438,0.44990625 5.00264063,0 5.55761719,0 C6.11260547,0 6.5625,0.44990625 6.5625,1.00488281 C6.5625,1.55985938 6.11260547,2.00976562 5.55761719,2.00976562 C5.00264063,2.00976562 4.55273438,1.55985938 4.55273438,1.00488281 Z M4.55273438,5.25 C4.55273438,4.69502344 5.00264063,4.24511719 5.55761719,4.24511719 C6.11260547,4.24511719 6.5625,4.69502344 6.5625,5.25 C6.5625,5.80497656 6.11260547,6.25488281 5.55761719,6.25488281 C5.00264063,6.25488281 4.55273438,5.80497656 4.55273438,5.25 Z M4.55273438,9.49511719 C4.55273438,8.94012891 5.00264063,8.49023438 5.55761719,8.49023438 C6.11260547,8.49023438 6.5625,8.94012891 6.5625,9.49511719 C6.5625,10.0501055 6.11260547,10.5 5.55761719,10.5 C5.00264063,10.5 4.55273438,10.0501055 4.55273438,9.49511719 Z" id="Shape"></path>
                            </g>
                        </g>
                    </g>
                </g>
            </g>
        </g>
    </g>
</svg>