<?xml version="1.0" encoding="UTF-8"?>
<svg width="20px" height="20px" viewBox="0 0 20 20" version="1.1" xmlns="http://www.w3.org/2000/svg" xmlns:xlink="http://www.w3.org/1999/xlink">
    <title>编辑</title>
    <g id="页面-1" stroke="none" stroke-width="1" fill="none" fill-rule="evenodd">
        <g id="编辑知识" transform="translate(-769.000000, -824.000000)" fill="#000000" fill-rule="nonzero">
            <g id="编组-2" transform="translate(297.000000, 196.000000)">
                <g id="编组-5" transform="translate(24.000000, 24.000000)">
                    <g id="Group-41备份" transform="translate(0.000000, 580.000000)">
                        <g id="编辑" transform="translate(448.000000, 24.000000)">
                            <rect id="矩形" opacity="0" x="0" y="0" width="20" height="20"></rect>
                            <path d="M10.3867188,12.4492188 L6.3828125,14.4296875 C5.93164062,14.6386719 5.5703125,14.234375 5.73828125,13.7832031 L7.71679687,9.77734375 C7.75,9.60546875 7.81640625,9.4375 7.95117187,9.30273437 L13.4882812,3.76171875 L4.8125,3.76171875 C4.1015625,3.76171875 3.5234375,4.33789062 3.5234375,5.05078125 L3.5234375,15.3613281 C3.5234375,16.0722656 4.09960938,16.6503906 4.8125,16.6503906 L15.1230469,16.6503906 C15.8339844,16.6503906 16.4121094,16.0742188 16.4121094,15.3613281 L16.4121094,6.66210938 L10.8613281,12.2148438 C10.7265625,12.3496094 10.5605469,12.4160156 10.3867188,12.4492188 Z M6.61328125,13.2304688 C6.5078125,13.4414062 6.7109375,13.6582031 6.93554687,13.5527344 L9.40820312,12.0546875 L8.109375,10.7558594 L6.61328125,13.2304688 L6.61328125,13.2304688 Z M16.0351562,5.74414062 L16.4121094,5.3671875 L16.4121094,5.05078125 C16.4121094,4.33984375 15.8359375,3.76171875 15.1230469,3.76171875 L14.78125,3.76171875 L14.4414062,4.10351562 L16.0351562,5.74414062 Z M8.59765625,9.95117188 C8.76953125,10.1230469 9.60742188,10.9628906 10.2148438,11.5683594 L15.3886719,6.39257812 L13.7597656,4.78515625 L8.59765625,9.95117188 Z M17.9746094,3.80273438 L16.3574219,2.18554688 C16,1.828125 15.421875,1.828125 15.0644531,2.18554688 L13.4882812,3.76367187 L14.78125,3.76367187 L15.3867187,3.15625 C15.5644531,2.97851562 15.8554687,2.97851562 16.0332031,3.15625 L17.0039062,4.12695312 C17.1816406,4.3046875 17.1816406,4.59570312 17.0039062,4.7734375 L16.4101562,5.3671875 L16.4101562,6.66210938 L17.9726562,5.09765625 C18.3320312,4.74023437 18.3320312,4.16015625 17.9746094,3.80273438 L17.9746094,3.80273438 Z" id="形状"></path>
                        </g>
                    </g>
                </g>
            </g>
        </g>
    </g>
</svg>