<?xml version="1.0" encoding="UTF-8"?>
<svg width="22px" height="22px" viewBox="0 0 22 22" version="1.1" xmlns="http://www.w3.org/2000/svg" xmlns:xlink="http://www.w3.org/1999/xlink">
    <title>编辑</title>
    <g id="页面-1" stroke="none" stroke-width="1" fill="none" fill-rule="evenodd">
        <g id="弹窗" transform="translate(-146.000000, -610.000000)" fill-rule="nonzero">
            <g id="添加图片2" transform="translate(80.000000, 443.000000)">
                <g id="网页封面" transform="translate(24.000000, 80.000000)">
                    <g id="编组备份" transform="translate(0.000000, 28.000000)">
                        <g id="编辑" transform="translate(42.000000, 59.000000)">
                            <rect id="矩形" fill="#000000" opacity="0" x="0" y="0" width="22" height="22"></rect>
                            <path d="M10.4066577,14.7812614 L5.61905145,17.1471382 C5.07956997,17.3967918 4.64751771,16.913817 4.84836363,16.3748451 L7.21414171,11.5894276 C7.25384381,11.384105 7.33324801,11.1834488 7.49439183,11.0224572 L14.1153009,4.40313525 L3.74137565,4.40313525 C2.89128363,4.40313525 2.2,5.09143274 2.2,5.94305505 L2.2,18.2600802 C2.2,19.1093693 2.88894821,19.8 3.74137565,19.8 L16.0700455,19.8 C16.9201375,19.8 17.6114211,19.1117025 17.6114211,18.2600802 L17.6114211,7.86795479 L10.9741641,14.501276 C10.8130203,14.6622676 10.6145098,14.7415968 10.4066577,14.7812614 Z M5.89463074,15.7145461 C5.76851818,15.966533 6.01140162,16.2255195 6.27997465,16.0995261 L9.23661341,14.3099526 L7.68356066,12.7583668 L5.89463074,15.7145461 L5.89463074,15.7145461 Z M17.1606855,6.77134524 L17.6114211,6.32103536 L17.6114211,5.94305505 C17.6114211,5.09376595 16.9224729,4.40313525 16.0700455,4.40313525 L15.6613474,4.40313525 L15.2549847,4.81144732 L17.1606855,6.77134524 Z M8.26741508,11.7970835 C8.47293183,12.0024061 9.47482601,13.0056872 10.2011409,13.7289829 L16.3876623,7.54597156 L14.4399239,5.62573824 L8.26741508,11.7970835 Z M19.4797553,4.4521327 L17.5460294,2.52023332 C17.118648,2.09325556 16.4273644,2.09325556 15.9999829,2.52023332 L14.1153009,4.40546847 L15.6613474,4.40546847 L16.3853269,3.67983959 C16.5978499,3.46751732 16.9458271,3.46751732 17.1583501,3.67983959 L18.3190527,4.83944586 C18.5315757,5.05176814 18.5315757,5.3994167 18.3190527,5.61173897 L17.6090857,6.32103536 L17.6090857,7.86795479 L19.4774198,5.99905213 C19.9071367,5.57207437 19.9071367,4.87911046 19.4797553,4.4521327 L19.4797553,4.4521327 Z" id="形状" fill="#FFFFFF"></path>
                        </g>
                    </g>
                </g>
            </g>
        </g>
    </g>
</svg>