<?xml version="1.0" encoding="UTF-8"?>
<svg width="16px" height="16px" viewBox="0 0 16 16" version="1.1" xmlns="http://www.w3.org/2000/svg" xmlns:xlink="http://www.w3.org/1999/xlink">
    <title>icon/delete/solid</title>
    <g id="页面-1" stroke="none" stroke-width="1" fill="none" fill-rule="evenodd">
        <g id="编辑知识" transform="translate(-807.000000, -826.000000)" fill="#000000">
            <g id="编组-2" transform="translate(297.000000, 196.000000)">
                <g id="编组-5" transform="translate(24.000000, 24.000000)">
                    <g id="Group-41备份" transform="translate(0.000000, 580.000000)">
                        <g id="编组-10" transform="translate(484.000000, 24.000000)">
                            <g id="delete/solid" transform="translate(2.500000, 2.500000)">
                                <path d="M4.82142857,2.14285714 L4.82142857,0.535714286 C4.82142857,0.379464286 4.87165179,0.251116071 4.97209821,0.150669643 C5.07254464,0.0502232143 5.20089286,0 5.35714286,0 L9.64285714,0 C9.79910714,0 9.92745536,0.0502232143 10.0279018,0.150669643 C10.1283482,0.251116071 10.1785714,0.379464286 10.1785714,0.535714286 L10.1785714,2.14285714 L14.4642857,2.14285714 C14.6205357,2.14285714 14.7488839,2.19308036 14.8493304,2.29352679 C14.9497768,2.39397321 15,2.52232143 15,2.67857143 C15,2.83482143 14.9497768,2.96316964 14.8493304,3.06361607 C14.7488839,3.1640625 14.6205357,3.21428571 14.4642857,3.21428571 L0.535714286,3.21428571 C0.379464286,3.21428571 0.251116071,3.1640625 0.150669643,3.06361607 C0.0502232143,2.96316964 0,2.83482143 0,2.67857143 C0,2.52232143 0.0502232143,2.39397321 0.150669643,2.29352679 C0.251116071,2.19308036 0.379464286,2.14285714 0.535714286,2.14285714 L4.82142857,2.14285714 Z M5.89285714,2.14285714 L9.10714286,2.14285714 L9.10714286,1.07142857 L5.89285714,1.07142857 L5.89285714,2.14285714 Z M2.14285714,15 C1.98660714,15 1.85825893,14.9497768 1.7578125,14.8493304 C1.65736607,14.7488839 1.60714286,14.6205357 1.60714286,14.4642857 L1.60714286,3.21428571 L13.3928571,3.21428571 L13.3928571,14.4642857 C13.3928571,14.6205357 13.3426339,14.7488839 13.2421875,14.8493304 C13.1417411,14.9497768 13.0133929,15 12.8571429,15 L2.14285714,15 Z M5.89285714,11.7857143 C6.04910714,11.7857143 6.17745536,11.7354911 6.27790179,11.6350446 C6.37834821,11.5345982 6.42857143,11.40625 6.42857143,11.25 L6.42857143,5.89285714 C6.42857143,5.73660714 6.37834821,5.60825893 6.27790179,5.5078125 C6.17745536,5.40736607 6.04910714,5.35714286 5.89285714,5.35714286 C5.73660714,5.35714286 5.60825893,5.40736607 5.5078125,5.5078125 C5.40736607,5.60825893 5.35714286,5.73660714 5.35714286,5.89285714 L5.35714286,11.25 C5.35714286,11.40625 5.40736607,11.5345982 5.5078125,11.6350446 C5.60825893,11.7354911 5.73660714,11.7857143 5.89285714,11.7857143 Z M9.10714286,11.7857143 C9.26339286,11.7857143 9.39174107,11.7354911 9.4921875,11.6350446 C9.59263393,11.5345982 9.64285714,11.40625 9.64285714,11.25 L9.64285714,5.89285714 C9.64285714,5.73660714 9.59263393,5.60825893 9.4921875,5.5078125 C9.39174107,5.40736607 9.26339286,5.35714286 9.10714286,5.35714286 C8.95089286,5.35714286 8.82254464,5.40736607 8.72209821,5.5078125 C8.62165179,5.60825893 8.57142857,5.73660714 8.57142857,5.89285714 L8.57142857,11.25 C8.57142857,11.40625 8.62165179,11.5345982 8.72209821,11.6350446 C8.82254464,11.7354911 8.95089286,11.7857143 9.10714286,11.7857143 Z" id="形状"></path>
                            </g>
                        </g>
                    </g>
                </g>
            </g>
        </g>
    </g>
</svg>