<?xml version="1.0" encoding="UTF-8"?>
<svg width="44px" height="44px" viewBox="0 0 44 44" version="1.1" xmlns="http://www.w3.org/2000/svg" xmlns:xlink="http://www.w3.org/1999/xlink">
    <title>编组</title>
    <g id="页面-1" stroke="none" stroke-width="1" fill="none" fill-rule="evenodd">
        <g id="编辑知识" transform="translate(-1051.000000, -985.000000)">
            <g id="编组" transform="translate(1051.000000, 985.000000)">
                <rect id="Rectangle-Copy" fill="#5C76B8" x="0" y="0" width="44" height="44" rx="4"></rect>
                <path d="M35.3628922,8 C34.4924966,8 33.1718963,8.66030019 33.1718962,9.98090046 L33.1718962,26.9085948 L23.2673943,17.0040929 L23.027285,17.0040929 L22.8171896,16.7939973 C22.6070941,16.7939973 22.1568894,16.5839018 21.7066848,16.7939973 L21.0463847,16.7939973 C20.8362892,16.7939973 20.8362892,17.0040929 20.8362892,17.0040929 L11.1718962,27.1186903 L11.1718962,10.190996 C11.1718962,8.66030019 9.85129595,8.21009554 8.98090034,8.21009554 C8.11050473,8.21009554 7,8.66030019 7,10.190996 L7,32.8512961 C7,33.7216917 7.66030019,34.622101 8.53069568,34.8321965 C8.98090034,34.8321965 9.64120041,34.8321965 10.0613915,34.3819919 L22.366985,22.2864939 L34.9126876,34.3819919 C35.1227831,34.5920874 35.3628922,34.5920874 35.3628922,34.8321965 C35.5729878,34.8321965 35.8130969,35.0422919 36.0231923,35.0422919 C36.8935879,35.0422919 37.7939972,34.1718963 37.7939972,33.0613916 L37.7939972,9.98090046 C37.5538881,8.42019108 36.2332878,8 35.3628922,8 L35.3628922,8 Z" id="路径" fill="#FFFFFF" fill-rule="nonzero"></path>
            </g>
        </g>
    </g>
</svg>