<?xml version="1.0" encoding="UTF-8"?>
<svg width="14px" height="14px" viewBox="0 0 14 14" version="1.1" xmlns="http://www.w3.org/2000/svg" xmlns:xlink="http://www.w3.org/1999/xlink">
    <title>code library</title>
    <g id="Page-1" stroke="none" stroke-width="1" fill="none" fill-rule="evenodd">
        <g id="编辑自定义事件" transform="translate(-1366.000000, -439.000000)" fill="#000000" fill-rule="nonzero">
            <g id="Group-6" transform="translate(320.000000, 430.000000)">
                <g id="code-library" transform="translate(1046.000000, 9.000000)">
                    <rect id="Rectangle" opacity="0" x="0" y="0" width="14" height="14"></rect>
                    <path d="M7.0546875,9.20117188 C7.0546875,9.26132812 7.10117187,9.31054688 7.15722656,9.31054688 L9.68652344,9.31054688 C9.74257812,9.31054688 9.7890625,9.26132812 9.7890625,9.20117188 L9.7890625,8.54492188 C9.7890625,8.48476563 9.74257812,8.43554688 9.68652344,8.43554688 L7.15722656,8.43554688 C7.10117187,8.43554688 7.0546875,8.48476563 7.0546875,8.54492188 L7.0546875,9.20117188 Z M4.39003906,9.28457031 L7.01503906,7.08339844 C7.06699219,7.03964844 7.06699219,6.95898438 7.01503906,6.91523438 L4.39003906,4.71542969 C4.31894531,4.65527344 4.2109375,4.70585937 4.2109375,4.79882812 L4.2109375,5.65605469 C4.2109375,5.68886719 4.22460938,5.71894531 4.25058594,5.73945313 L5.75175781,7 L4.25058594,8.26054688 C4.22597656,8.28105469 4.2109375,8.3125 4.2109375,8.34394531 L4.2109375,9.20117188 C4.2109375,9.29414063 4.31894531,9.34472656 4.39003906,9.28457031 Z M12.03125,1.53125 L1.96875,1.53125 C1.72675781,1.53125 1.53125,1.72675781 1.53125,1.96875 L1.53125,12.03125 C1.53125,12.2732422 1.72675781,12.46875 1.96875,12.46875 L12.03125,12.46875 C12.2732422,12.46875 12.46875,12.2732422 12.46875,12.03125 L12.46875,1.96875 C12.46875,1.72675781 12.2732422,1.53125 12.03125,1.53125 Z M11.484375,11.484375 L2.515625,11.484375 L2.515625,2.515625 L11.484375,2.515625 L11.484375,11.484375 Z" id="Shape"></path>
                </g>
            </g>
        </g>
    </g>
</svg>