<?xml version="1.0" encoding="UTF-8"?>
<svg width="48px" height="48px" viewBox="0 0 48 48" version="1.1" xmlns="http://www.w3.org/2000/svg" xmlns:xlink="http://www.w3.org/1999/xlink">
    <title>编组</title>
    <g id="页面-1" stroke="none" stroke-width="1" fill="none" fill-rule="evenodd">
        <g id="客户详情-企业微信客户-客户" transform="translate(-336.000000, -324.000000)">
            <g id="Group" transform="translate(320.000000, 308.000000)">
                <g id="编组" transform="translate(16.000000, 16.000000)">
                    <polygon id="Path" fill="#FFFFFF" fill-rule="nonzero" opacity="0" points="0 0 48 0 48 48 0 48"></polygon>
                    <g id="图形" transform="translate(2.000000, 6.000000)">
                        <path d="M29.3209878,29.9643485 C29.3343166,29.9806851 29.3485194,29.9965861 29.3638148,30.0118337 C29.3902538,30.0381901 29.4186595,30.0610614 29.4483761,30.0815366 C29.5073724,30.1368634 29.5661502,30.1930614 29.6238355,30.2505663 C30.7585311,31.3817149 31.4717308,32.7738139 31.7643088,34.233002 C31.7693344,34.3151208 31.7782931,34.3970218 31.7914034,34.4784871 C31.8058247,34.5682297 31.8250531,34.657101 31.8490886,34.745101 C31.9614001,35.1554772 32.1783754,35.5429822 32.5015441,35.8653584 C33.4918079,36.8523089 35.0971629,36.8523089 36.0874268,35.8653584 C37.0774721,34.8781901 37.0774721,33.2778535 36.0874268,32.2906851 C35.738256,31.9428238 35.3128272,31.7180317 34.8648923,31.6154376 C34.8146361,31.6038931 34.7641615,31.5940911 34.7136869,31.585596 C34.6625568,31.577101 34.6116452,31.5699129 34.5602965,31.5646851 C33.0600424,31.2858733 31.6257767,30.5685861 30.4652976,29.4117347 C30.3816102,29.3283089 30.3005449,29.2431406 30.2214462,29.1568832 L30.2210092,29.157101 C29.9843685,28.9212 29.6004555,28.9212 29.3638148,29.157101 C29.1422509,29.3779723 29.128048,29.7269228 29.3209878,29.9643485" id="Fill-29" fill="#FB6500"></path>
                        <path d="M37.3378425,31.9063386 C37.3542303,31.8930515 37.3701812,31.8788931 37.3854765,31.8636455 C37.4119156,31.8372891 37.4348586,31.8089723 37.4553981,31.7793485 C37.5108983,31.7205366 37.5672725,31.6619426 37.6249578,31.6044376 C38.7596534,30.4732891 40.1561177,29.7623188 41.6198816,29.4706554 C41.7022579,29.4656455 41.7844157,29.4567149 41.8661365,29.4436455 C41.9561605,29.4292693 42.0453105,29.410101 42.1335864,29.3861406 C42.5452495,29.2741802 42.9339696,29.0578832 43.2573567,28.7357248 C44.2474021,27.7485564 44.2474021,26.1482198 43.2573567,25.1610515 C42.2670929,24.174101 40.6617379,24.174101 39.671474,25.1610515 C39.3225218,25.5091307 39.0970248,25.9332297 38.9941091,26.3797644 C38.9825283,26.4298634 38.9726956,26.4801802 38.9641739,26.530497 C38.9556522,26.5814673 38.9484416,26.6322198 38.9431974,26.6834079 C38.6635113,28.1789723 37.9439749,29.6087545 36.7834957,30.7656059 C36.6998084,30.8490317 36.614373,30.9298436 36.5278451,31.008695 L36.5280636,31.0091307 C36.2914229,31.2450317 36.2914229,31.6277446 36.5280636,31.8636455 C36.7496275,32.0845168 37.0996722,32.0986752 37.3378425,31.9063386" id="Fill-30" fill="#0082EF"></path>
                        <path d="M39.2859223,23.9145446 C39.2725935,23.8982079 39.2583906,23.8823069 39.2430953,23.8670594 C39.2166562,23.840703 39.1882506,23.8178317 39.1585339,23.7973564 C39.0995376,23.7420297 39.0407598,23.6858317 38.9830746,23.6283267 C37.848379,22.4971782 37.1351793,21.1050792 36.8426013,19.6458911 C36.8375757,19.5637723 36.828617,19.4818713 36.8155067,19.4004059 C36.8010854,19.3106634 36.7818569,19.2217921 36.7578214,19.1337921 C36.6455099,18.7234158 36.4285346,18.3359109 36.105366,18.0135347 C35.1151021,17.0265842 33.5097472,17.0265842 32.5194833,18.0135347 C31.5294379,19.000703 31.5294379,20.6010396 32.5194833,21.5882079 C32.868654,21.9360693 33.2940829,22.1608614 33.7420178,22.2634554 C33.7922739,22.275 33.8427485,22.284802 33.8932231,22.293297 C33.9443533,22.3017921 33.9952649,22.3089802 34.0466135,22.3142079 C35.5468677,22.5930198 36.9811333,23.3103069 38.1416125,24.4671584 C38.2252998,24.5505842 38.3063651,24.6357525 38.3854639,24.7220099 L38.3859009,24.7217921 C38.6225416,24.9576931 39.0064546,24.9576931 39.2430953,24.7217921 C39.4646592,24.5009208 39.478862,24.1519703 39.2859223,23.9145446" id="Fill-31" fill="#2DBC00"></path>
                        <path d="M31.2690457,21.9725545 C31.2526579,21.9858416 31.236707,22 31.2214117,22.0152475 C31.1949726,22.041604 31.1720296,22.0699208 31.1514901,22.0995446 C31.0959899,22.1583564 31.0396157,22.2169505 30.9819304,22.2744554 C29.8472348,23.405604 28.4507705,24.1165743 26.9870067,24.4082376 C26.9046303,24.4132475 26.8224725,24.4221782 26.7407517,24.4352475 C26.6507277,24.4496238 26.5615778,24.4687921 26.4733018,24.4927525 C26.0616387,24.6047129 25.6729186,24.8210099 25.3495315,25.1431683 C24.3594861,26.1303366 24.3594861,27.7306733 25.3495315,28.7178416 C26.3397954,29.7047921 27.9451503,29.7047921 28.9354142,28.7178416 C29.2843664,28.3697624 29.5098634,27.9456634 29.6127792,27.4991287 C29.6243599,27.4490297 29.6341926,27.3987129 29.6427143,27.348396 C29.651236,27.2974257 29.6584467,27.2466733 29.6636908,27.1954851 C29.943377,25.6999208 30.6629133,24.2701386 31.8233925,23.1132871 C31.9070798,23.0298614 31.9925152,22.9490495 32.0790431,22.870198 L32.0788246,22.8697624 C32.3154653,22.6338614 32.3154653,22.2511485 32.0788246,22.0152475 C31.8572607,21.7943762 31.507216,21.7802178 31.2690457,21.9725545" id="Fill-32" fill="#FFCC00"></path>
                        <path d="M35.0392154,9.62227723 C34.3341003,8.17768317 33.3864449,6.83677228 32.2229067,5.63657426 C29.2827058,2.60514851 25.1662933,0.652594059 20.6323182,0.138752475 C19.8183877,0.0466138614 19.0116679,0 18.2344462,0 C17.4937149,0 16.7213003,0.0429108911 15.938616,0.127861386 C11.3843199,0.621445545 7.24518302,2.56376238 4.28335011,5.59714851 C3.11434929,6.79451485 2.16188675,8.13237624 1.45174606,9.5730495 C0.488358286,11.5282178 0,13.6036238 0,15.7415446 C0,18.4941584 0.840151056,21.2082178 2.42977367,23.5907525 C3.32870252,24.938198 4.86588397,26.6796832 6.18172004,27.7467921 L6.18172004,27.7467921 L5.45300644,30.7516436 L5.2430233,31.5978812 C5.20609599,31.6810891 5.17747185,31.7682178 5.15736941,31.8590495 C5.14491464,31.9143762 5.14120005,31.9725347 5.13573743,32.0302574 C5.13158584,32.0740396 5.12240864,32.116297 5.12240864,32.1613861 C5.12240864,32.934 5.75061001,33.5602376 6.52586514,33.5602376 C6.77911223,33.5602376 7.01356791,33.4881386 7.21874394,33.3711683 C7.22508058,33.3674653 7.23207273,33.364198 7.23819087,33.360495 C7.26834454,33.3428515 7.29893521,33.3271683 7.32755934,33.3075644 L12.5323443,30.7032871 C13.6526185,31.023703 14.7641526,31.2286733 15.9362125,31.3571881 C16.6979203,31.4408317 17.4712089,31.4830891 18.2344462,31.4830891 C19.0127604,31.4830891 19.8194803,31.4362574 20.6323182,31.3441188 C22.230681,31.1631089 23.768081,30.7958614 25.2274747,30.2735248 C25.0697142,30.2214653 24.9147943,30.1532871 24.7649,30.0676832 C23.8720893,29.5586337 23.409733,28.590198 23.5015051,27.6317822 C22.4585815,27.962 21.3695535,28.1987723 20.2435981,28.326198 C19.560552,28.4037426 18.8842796,28.4429505 18.2344462,28.4429505 C17.5957566,28.4429505 16.9485453,28.4074455 16.3109483,28.3375248 C16.1778788,28.3229307 16.0454649,28.3026733 15.9128325,28.2850297 C15.0368466,28.1687129 14.170912,27.9907525 13.3344755,27.7463564 C13.1640418,27.6921188 12.9835568,27.6646733 12.7984832,27.6646733 C12.5100568,27.6646733 12.2301521,27.7406931 11.9463144,27.887505 C11.9096055,27.9064554 11.8731152,27.9221386 11.8361879,27.943703 L8.49656016,29.9056238 L8.49306409,29.9075842 C8.42379806,29.9478812 8.38468569,29.9629109 8.3488509,29.9629109 C8.23151381,29.9629109 8.1362457,29.8640198 8.1362457,29.7424752 L8.25970093,29.2451881 C8.29422469,29.1140594 8.34295127,28.9293465 8.40194757,28.7047723 C8.5479088,28.1506337 8.7474037,27.3926139 8.89554998,26.8299802 C8.92767018,26.7149703 8.96044591,26.5768713 8.96044591,26.4217822 C8.96044591,25.9933267 8.75483287,25.588396 8.4122173,25.3396436 C8.23785045,25.2111287 8.0637021,25.076297 7.88059506,24.9277426 C7.60025337,24.7003366 7.33214794,24.4633465 7.07409375,24.2193861 C6.34909473,23.533901 5.71259017,22.7856832 5.17790886,21.984099 C3.91888406,20.0973267 3.25353686,17.9563564 3.25353686,15.792297 C3.25353686,14.1128911 3.63876087,12.4796634 4.39828364,10.9383564 C4.96574068,9.7869505 5.73007056,8.71483168 6.67029683,7.75162376 C9.1048776,5.258 12.5286297,3.65918812 16.3105112,3.24924752 C16.9688663,3.17780198 17.6160776,3.14164356 18.2344462,3.14164356 C18.8836241,3.14164356 19.559678,3.18085149 20.2435981,3.25839604 C24.0079993,3.68510891 27.4118674,5.2919802 29.8283123,7.78342574 C30.7641685,8.74859406 31.5243468,9.82310891 32.0878707,10.9773465 C32.8351572,12.5088515 33.2142631,14.1287921 33.2142631,15.792297 C33.2142631,15.9652475 33.2033379,16.1375446 33.1948162,16.3100594 C34.1713142,15.7143168 35.4618037,15.8312871 36.3069804,16.6738218 C36.3498074,16.716297 36.3856421,16.7629109 36.424536,16.8077822 C36.4525046,16.4533861 36.4680185,16.097901 36.4680185,15.7415446 C36.4680185,13.6234455 35.9873078,11.5645941 35.0392154,9.62227723" id="Fill-33" fill="#0079DE"></path>
                    </g>
                </g>
            </g>
        </g>
    </g>
</svg>