<?xml version="1.0" encoding="UTF-8"?>
<svg width="24px" height="24px" viewBox="0 0 24 24" version="1.1" xmlns="http://www.w3.org/2000/svg" xmlns:xlink="http://www.w3.org/1999/xlink">
    <title>有赞 copy</title>
    <g id="页面-1" stroke="none" stroke-width="1" fill="none" fill-rule="evenodd">
        <g id="客户详情-业务客户" transform="translate(-1303.000000, -506.000000)">
            <g id="编组-50" transform="translate(998.000000, 436.000000)">
                <g id="编组-35" transform="translate(0.000000, 34.000000)">
                    <g id="编组-33" transform="translate(281.000000, 36.000000)">
                        <g id="有赞-copy" transform="translate(24.000000, 0.000000)">
                            <rect id="Rectangle" fill="#000000" fill-rule="nonzero" opacity="0" x="0" y="0" width="24" height="24"></rect>
                            <g id="编组-16" transform="translate(2.000000, 2.000000)">
                                <rect id="Rectangle" fill="#FF3B34" x="0" y="0" width="20" height="20" rx="2"></rect>
                                <path d="M14.4748374,7.13596148 C13.81766,7.21563299 13.1609328,7.29935559 12.5042055,7.37452588 C12.1116995,7.42043827 11.8695342,7.2012291 11.8920403,6.82132656 C11.9127458,6.44547511 11.950556,6.07142414 11.9766631,5.69602281 C12.0113224,5.2161933 12.0558845,4.73636378 12.0738893,4.25563403 C12.1008966,3.55389461 11.6966875,3.04885829 11.0386099,2.93362719 C10.4863108,2.83685107 10.0852526,3.16273903 9.99207742,3.73034224 C9.85248224,4.60625061 9.69038492,5.47842425 9.5059462,6.34599826 C9.35200465,7.0504384 9.11118965,7.73237247 8.75469342,8.3611922 C8.53503413,8.74964705 8.28026536,9.11244497 7.86975456,9.30734758 C7.72886653,9.37441568 7.69420718,9.45273683 7.69420718,9.59902631 C7.69870839,11.450376 7.6969079,13.3035262 7.6969079,15.1548759 L7.6969079,15.3511289 C7.79053318,15.3398759 7.85445043,15.3326739 7.91836768,15.3227713 C10.0393402,14.9910317 12.1589623,14.6592922 14.2799348,14.3293531 C14.8394358,14.2424797 15.1891802,13.7941587 15.1234625,13.2193535 C15.0969053,12.9843901 15.1248128,12.7669814 15.2305914,12.5563245 C15.4061388,12.2034293 15.4308955,11.8347798 15.37373,11.4404734 C15.3377203,11.1974077 15.3323189,10.9196828 15.4128906,10.6950722 C15.603292,10.1652792 15.6397518,9.65619174 15.5146181,9.10119194 C15.451601,8.81941588 15.5312726,8.49217755 15.5924891,8.19464724 C15.7369781,7.52126548 15.380932,7.0693435 14.7084505,7.11165492 C14.6302239,7.11763895 14.5521742,7.12574412 14.4743873,7.13596148 L14.4748374,7.13596148 Z M7.08699328,9.52070517 C6.99786922,9.53510906 6.94520501,9.542311 6.89209067,9.55221368 C6.46222464,9.63458591 6.03055812,9.71425741 5.60069209,9.80248123 C5.2887579,9.8668486 5.12176282,10.0770553 5.12176282,10.4015929 C5.12041246,11.9743174 5.12041246,13.5479422 5.12311319,15.1206667 C5.12311319,15.4920169 5.35717637,15.7098757 5.71502295,15.6639634 C6.10887926,15.61445 6.49823436,15.5374792 6.8907403,15.4906666 C7.05638501,15.4704111 7.08969401,15.3965912 7.08881131,15.2385985 C7.08429255,13.4142561 7.08564291,11.587213 7.08699328,9.76152017 L7.08699328,9.52070517 L7.08699328,9.52070517 Z" id="Shape" fill="#FFFFFF" fill-rule="nonzero"></path>
                            </g>
                        </g>
                    </g>
                </g>
            </g>
        </g>
    </g>
</svg>