<?xml version="1.0" encoding="UTF-8"?>
<svg width="16px" height="16px" viewBox="0 0 16 16" version="1.1" xmlns="http://www.w3.org/2000/svg" xmlns:xlink="http://www.w3.org/1999/xlink">
    <title>1.通用组件/2.Icon图标/1.Outlined线性/plus-square</title>
    <g id="Page-1" stroke="none" stroke-width="1" fill="none" fill-rule="evenodd">
        <g id="组件" transform="translate(-1144.000000, -870.000000)" fill="#000000">
            <g id="Group-19" transform="translate(108.000000, 63.000000)">
                <g id="Group-12" transform="translate(438.000000, 623.000000)">
                    <g id="Group-10-Copy" transform="translate(0.000000, 172.000000)">
                        <g id="Group" transform="translate(88.000000, 0.000000)">
                            <g id="plus-square" transform="translate(508.000000, 10.000000)">
                                <rect id="矩形" fill-rule="nonzero" opacity="0" x="0" y="0" width="20" height="20"></rect>
                                <path d="M6.40625,10.625 L9.375,10.625 L9.375,13.59375 C9.375,13.6796875 9.4453125,13.75 9.53125,13.75 L10.46875,13.75 C10.5546875,13.75 10.625,13.6796875 10.625,13.59375 L10.625,10.625 L13.59375,10.625 C13.6796875,10.625 13.75,10.5546875 13.75,10.46875 L13.75,9.53125 C13.75,9.4453125 13.6796875,9.375 13.59375,9.375 L10.625,9.375 L10.625,6.40625 C10.625,6.3203125 10.5546875,6.25 10.46875,6.25 L9.53125,6.25 C9.4453125,6.25 9.375,6.3203125 9.375,6.40625 L9.375,9.375 L6.40625,9.375 C6.3203125,9.375 6.25,9.4453125 6.25,9.53125 L6.25,10.46875 C6.25,10.5546875 6.3203125,10.625 6.40625,10.625 Z" id="路径" fill-opacity="0.65"></path>
                                <path d="M17.1875,2.1875 L2.8125,2.1875 C2.46679688,2.1875 2.1875,2.46679688 2.1875,2.8125 L2.1875,17.1875 C2.1875,17.5332031 2.46679688,17.8125 2.8125,17.8125 L17.1875,17.8125 C17.5332031,17.8125 17.8125,17.5332031 17.8125,17.1875 L17.8125,2.8125 C17.8125,2.46679688 17.5332031,2.1875 17.1875,2.1875 Z M16.40625,16.40625 L3.59375,16.40625 L3.59375,3.59375 L16.40625,3.59375 L16.40625,16.40625 Z" id="形状" fill-opacity="0.06"></path>
                            </g>
                        </g>
                    </g>
                </g>
            </g>
        </g>
    </g>
</svg>