<?xml version="1.0" encoding="UTF-8"?>
<svg width="24px" height="24px" viewBox="0 0 24 24" version="1.1" xmlns="http://www.w3.org/2000/svg" xmlns:xlink="http://www.w3.org/1999/xlink">
    <title>分组</title>
    <g id="页面-1" stroke="none" stroke-width="1" fill="none" fill-rule="evenodd">
        <g id="客户详情-业务客户" transform="translate(-1022.000000, -506.000000)" fill-rule="nonzero">
            <g id="编组-50" transform="translate(998.000000, 436.000000)">
                <g id="编组-35" transform="translate(0.000000, 34.000000)">
                    <g id="编组-29" transform="translate(0.000000, 36.000000)">
                        <g id="分组" transform="translate(24.000000, 0.000000)">
                            <rect id="Rectangle" fill="#000000" opacity="0" x="0" y="0" width="23.9999954" height="23.9999954"></rect>
                            <path d="M17.8333303,11.3333318 C19.1877663,11.3331838 20.4076309,12.1526127 20.9196601,13.4065357 C21.4316894,14.6604588 21.1340691,16.0995403 20.1666644,17.0474974 C21.3140981,17.8216565 22.0013233,19.1158264 21.9999981,20.4999967 C21.9995071,20.9409078 21.6556542,21.3051339 21.2155006,21.3309733 C20.7753471,21.3568127 20.3912389,21.0353219 20.3391631,20.5974967 L20.3333298,20.4999967 C20.3333298,19.1192851 19.2140419,17.9999972 17.8333303,17.9999972 C16.4526187,17.9999972 15.3333308,19.1192851 15.3333308,20.4999967 C15.3333308,20.960234 14.9602348,21.3333318 14.4999976,21.3333318 C14.0397604,21.3333318 13.6666644,20.960234 13.6666644,20.4999967 C13.6666644,19.0633304 14.3941643,17.7958306 15.5008308,17.0466641 C14.534137,16.098728 14.2368518,14.6602402 14.7485905,13.4067638 C15.2603292,12.1532873 16.4794177,11.3338675 17.8333303,11.3333318 Z M10.7983317,3.00000005 C11.5160105,2.99982728 12.1532115,3.45909542 12.379998,4.13999988 L13.1108312,6.3333328 L21.166663,6.3333328 C21.6269002,6.3333328 22,6.70642877 22,7.16666598 L22,10.5 L20.3333298,10.5 L20.3333298,8.00000005 L11.9091648,8.00000005 L10.7983317,4.66666646 L3.66666634,4.66666646 L3.66666634,18 L12,18 L12,19.6666636 L2.83333318,19.6666636 C2.37309597,19.6666636 2,19.2935676 2,18.8333304 L2,3.83333328 C2,3.37309607 2.37309597,3.00000005 2.83333318,3.00000005 L10.7983317,3.00000005 Z M17.8333303,12.9999982 C17.2378878,12.9999982 16.6876761,13.317663 16.3899549,13.8333313 C16.0922336,14.3489997 16.0922336,14.9843294 16.3899549,15.4999982 C16.6876761,16.0156661 17.2378878,16.3333309 17.8333303,16.3333309 C18.7538047,16.3333309 19.4999967,15.5871389 19.4999967,14.6666645 C19.4999967,13.7461901 18.7538047,12.9999982 17.8333303,12.9999982 L17.8333303,12.9999982 Z" id="Shape" fill="#FFBE00"></path>
                        </g>
                    </g>
                </g>
            </g>
        </g>
    </g>
</svg>