<?xml version="1.0" encoding="UTF-8"?>
<svg width="20px" height="20px" viewBox="0 0 20 20" version="1.1" xmlns="http://www.w3.org/2000/svg" xmlns:xlink="http://www.w3.org/1999/xlink">
    <title>1.Element/Close_Click</title>
    <g id="页面-1" stroke="none" stroke-width="1" fill="none" fill-rule="evenodd" fill-opacity="0.5">
        <g id="客服管理" transform="translate(-802.000000, -269.000000)" fill="#000000">
            <g id="Group-8" transform="translate(320.000000, 160.000000)">
                <g id="common_icons_miniprogram" transform="translate(480.000000, 107.000000)">
                    <path d="M12,2 C17.5228475,2 22,6.4771525 22,12 C22,17.5228475 17.5228475,22 12,22 C6.4771525,22 2,17.5228475 2,12 C2,6.4771525 6.4771525,2 12,2 Z M15.0052038,7.93413601 L12,10.94 L8.99479618,7.93413601 L7.93413601,8.99479618 L10.94,12 L7.93413601,15.0052038 L8.99479618,16.065864 L12,13.06 L15.0052038,16.065864 L16.065864,15.0052038 L13.06,12 L16.065864,8.99479618 L15.0052038,7.93413601 Z" id="图标颜色"></path>
                </g>
            </g>
        </g>
    </g>
</svg>