<?xml version="1.0" encoding="UTF-8"?>
<svg width="108px" height="108px" viewBox="0 0 108 108" version="1.1" xmlns="http://www.w3.org/2000/svg" xmlns:xlink="http://www.w3.org/1999/xlink">
    <title>编组备份</title>
    <g id="页面-1" stroke="none" stroke-width="1" fill="none" fill-rule="evenodd">
        <g id="工作台-知识库-详情页" transform="translate(-134.000000, -424.000000)">
            <g id="编组" transform="translate(15.000000, 306.000000)">
                <g id="编组备份" transform="translate(119.000000, 118.000000)">
                    <rect id="Rectangle-Copy" fill="#58C5C2" x="0" y="0" width="108" height="108" rx="4"></rect>
                    <path d="M53.9957769,90.8181818 C33.8357992,90.8181818 17.1818182,74.2609853 17.1818182,54.2181255 C17.1818182,33.7392122 33.8356005,17.1818182 53.9957769,17.1818182 C74.155556,17.1818182 90.8097356,33.7390147 90.8097356,53.7818745 C91.2477369,74.2609853 74.5939546,90.8181818 53.9957769,90.8181818 M83.7975436,62.9320861 C84.6739434,59.8820814 85.1121434,56.8318792 85.1121434,53.7818745 C85.1121434,51.1679233 84.6739434,48.9892357 84.2355448,46.3748895 C83.7975436,46.3748895 83.359145,46.8105481 83.359145,46.8105481 L74.5939546,46.8105481 C75.0323532,48.9894332 75.4703545,51.6037794 75.4703545,53.782072 C75.4703545,56.8322742 75.0323532,59.8822789 74.5939546,62.4966251 L83.7975436,62.4966251 C83.359145,62.9320861 83.359145,62.9320861 83.7975436,62.9320861 M39.0949929,54.2179281 C39.0949929,57.2675378 39.5329942,60.31774 39.9713927,62.9320861 L51.3659814,62.9320861 L51.3659814,47.2462067 L39.9713927,47.2462067 C39.5331928,49.4246968 39.0949929,51.6035819 39.0949929,54.2179281 M68.458361,47.2462067 L57.0635737,47.2462067 L57.0635737,62.9320861 L68.0203597,62.9320861 C68.8967595,59.8820814 68.8967595,57.2675378 68.8967595,54.2179281 C68.8967595,51.6035819 68.8967595,49.4246968 68.458361,47.2462067 M82.0443466,66.8536053 L72.4027563,66.8536053 C70.2115581,72.9538122 66.2669641,79.0536242 60.5695704,83.8464604 C70.211558,82.1038263 78.0999513,75.567961 82.0443466,66.8536053 M67.1437612,66.8536053 L57.0635737,66.8536053 L57.0635737,82.5394848 C61.4459703,78.182307 64.9523643,72.9538121 67.1437612,66.8536053 M51.3661801,81.6679703 L51.3661801,66.8536053 L41.2863899,66.8536053 C43.4775881,72.9538122 46.9835848,78.1823071 51.3661801,82.5394848 L51.3661801,81.6679703 M47.8599847,83.8464604 C42.162591,78.6181631 37.7799958,72.9538122 35.5887976,66.8536053 L25.9470087,66.8536053 C30.3296039,75.5679608 38.2183944,82.1038263 47.8599847,83.8464604 M24.6322101,62.9320861 L34.2741978,62.9320861 C33.3975992,59.8820814 33.3975992,57.2675378 33.3975992,54.2179281 C33.3975992,52.039043 33.8357992,49.4246968 34.2741978,47.2462067 L25.5090073,47.2462067 C25.0706087,47.2462067 24.6324087,46.8103507 24.1942089,46.8103507 C23.7558103,48.9892358 23.3176104,51.6035819 23.3176104,53.7818745 C23.3176104,57.2677352 23.7558104,60.3177399 24.6322101,62.9320861 M25.5088087,42.8892263 L35.1505976,42.8892263 C37.3417959,35.9177024 42.1627897,29.381837 48.7367818,23.7174861 C37.7801945,25.4605152 29.015004,33.3031588 25.5088087,42.8892263 M40.8479913,42.8892263 L51.3661801,42.8892263 L51.3661801,25.4605152 C46.545385,30.6890101 42.6011883,36.3533609 40.8479913,42.8892263 M57.063375,42.8892263 L67.5817625,42.8892263 C65.8285655,36.3533609 61.8843689,30.253154 57.063375,25.4605152 L57.063375,42.8892263 M59.6931706,23.7174861 C66.2671627,29.381837 71.0879579,35.9175049 73.2793548,42.8892263 L83.3593437,42.8892263 C79.4145511,33.3031588 70.6495593,25.8959762 59.6931706,23.7174861" id="形状" fill="#FFFFFF" fill-rule="nonzero"></path>
                </g>
            </g>
        </g>
    </g>
</svg>