<?xml version="1.0" encoding="UTF-8"?>
<svg width="16px" height="16px" viewBox="0 0 16 16" version="1.1" xmlns="http://www.w3.org/2000/svg" xmlns:xlink="http://www.w3.org/1999/xlink">
    <title>delete/solid</title>
    <g id="页面-1" stroke="none" stroke-width="1" fill="none" fill-rule="evenodd">
        <g id="快捷发送-个人话术---管理" transform="translate(-18.000000, -179.000000)" fill="#F56C6C">
            <g id="编组-10" transform="translate(0.000000, 162.000000)">
                <g id="delete/solid" transform="translate(18.000000, 17.000000)">
                    <path d="M5.14285714,2.28571429 L5.14285714,0.571428571 C5.14285714,0.404761905 5.19642857,0.267857143 5.30357143,0.160714286 C5.41071429,0.0535714286 5.54761905,0 5.71428571,0 L10.2857143,0 C10.452381,0 10.5892857,0.0535714286 10.6964286,0.160714286 C10.8035714,0.267857143 10.8571429,0.404761905 10.8571429,0.571428571 L10.8571429,2.28571429 L15.4285714,2.28571429 C15.5952381,2.28571429 15.7321429,2.33928571 15.8392857,2.44642857 C15.9464286,2.55357143 16,2.69047619 16,2.85714286 C16,3.02380952 15.9464286,3.16071429 15.8392857,3.26785714 C15.7321429,3.375 15.5952381,3.42857143 15.4285714,3.42857143 L0.571428571,3.42857143 C0.404761905,3.42857143 0.267857143,3.375 0.160714286,3.26785714 C0.0535714286,3.16071429 0,3.02380952 0,2.85714286 C0,2.69047619 0.0535714286,2.55357143 0.160714286,2.44642857 C0.267857143,2.33928571 0.404761905,2.28571429 0.571428571,2.28571429 L5.14285714,2.28571429 Z M6.28571429,2.28571429 L9.71428571,2.28571429 L9.71428571,1.14285714 L6.28571429,1.14285714 L6.28571429,2.28571429 Z M2.28571429,16 C2.11904762,16 1.98214286,15.9464286 1.875,15.8392857 C1.76785714,15.7321429 1.71428571,15.5952381 1.71428571,15.4285714 L1.71428571,3.42857143 L14.2857143,3.42857143 L14.2857143,15.4285714 C14.2857143,15.5952381 14.2321429,15.7321429 14.125,15.8392857 C14.0178571,15.9464286 13.8809524,16 13.7142857,16 L2.28571429,16 Z M6.28571429,12.5714286 C6.45238095,12.5714286 6.58928571,12.5178571 6.69642857,12.4107143 C6.80357143,12.3035714 6.85714286,12.1666667 6.85714286,12 L6.85714286,6.28571429 C6.85714286,6.11904762 6.80357143,5.98214286 6.69642857,5.875 C6.58928571,5.76785714 6.45238095,5.71428571 6.28571429,5.71428571 C6.11904762,5.71428571 5.98214286,5.76785714 5.875,5.875 C5.76785714,5.98214286 5.71428571,6.11904762 5.71428571,6.28571429 L5.71428571,12 C5.71428571,12.1666667 5.76785714,12.3035714 5.875,12.4107143 C5.98214286,12.5178571 6.11904762,12.5714286 6.28571429,12.5714286 Z M9.71428571,12.5714286 C9.88095238,12.5714286 10.0178571,12.5178571 10.125,12.4107143 C10.2321429,12.3035714 10.2857143,12.1666667 10.2857143,12 L10.2857143,6.28571429 C10.2857143,6.11904762 10.2321429,5.98214286 10.125,5.875 C10.0178571,5.76785714 9.88095238,5.71428571 9.71428571,5.71428571 C9.54761905,5.71428571 9.41071429,5.76785714 9.30357143,5.875 C9.19642857,5.98214286 9.14285714,6.11904762 9.14285714,6.28571429 L9.14285714,12 C9.14285714,12.1666667 9.19642857,12.3035714 9.30357143,12.4107143 C9.41071429,12.5178571 9.54761905,12.5714286 9.71428571,12.5714286 Z" id="形状"></path>
                </g>
            </g>
        </g>
    </g>
</svg>