<?xml version="1.0" encoding="UTF-8"?>
<svg width="24px" height="24px" viewBox="0 0 24 24" version="1.1" xmlns="http://www.w3.org/2000/svg" xmlns:xlink="http://www.w3.org/1999/xlink">
    <title>表情</title>
    <g id="Page-1" stroke="none" stroke-width="1" fill="none" fill-rule="evenodd">
        <g id="编辑事件任务" transform="translate(-334.000000, -1156.000000)">
            <g id="Group-13" transform="translate(320.000000, 994.000000)">
                <g id="笑脸_smiling-face" transform="translate(14.000000, 162.000000)">
                    <rect id="矩形" fill-opacity="0.01" fill="#FFFFFF" fill-rule="nonzero" x="0" y="0" width="24" height="24"></rect>
                    <path d="M12,22 C17.52285,22 22,17.52285 22,12 C22,6.47715 17.52285,2 12,2 C6.47715,2 2,6.47715 2,12 C2,17.52285 6.47715,22 12,22 Z" id="路径" stroke="#333333" stroke-width="2"></path>
                    <path d="M15.5,15.5 C15.5,15.5 14.5,17.5 12,17.5 C9.5,17.5 8.5,15.5 8.5,15.5" id="路径" stroke="#333333" stroke-width="2"></path>
                    <line x1="15.5" y1="9" x2="15.5" y2="11" id="路径" stroke="#333333" stroke-width="2"></line>
                    <line x1="8.5" y1="9" x2="8.5" y2="11" id="路径" stroke="#333333" stroke-width="2"></line>
                </g>
            </g>
        </g>
    </g>
</svg>