<?xml version="1.0" encoding="UTF-8"?>
<svg width="44px" height="44px" viewBox="0 0 44 44" version="1.1" xmlns="http://www.w3.org/2000/svg" xmlns:xlink="http://www.w3.org/1999/xlink">
    <title>编组</title>
    <g id="页面-1" stroke="none" stroke-width="1" fill="none" fill-rule="evenodd">
        <g id="编辑知识" transform="translate(-999.000000, -985.000000)">
            <g id="编组" transform="translate(999.000000, 985.000000)">
                <rect id="Rectangle-Copy" fill="#09CC6E" x="0" y="0" width="44" height="44" rx="4"></rect>
                <path d="M34.6526437,36.0327423 L28.2597378,36.0327423 C27.8095332,36.0327423 27.4193558,35.7926332 27.2092604,35.4024558 L22.4971185,26.728513 C22.3170367,26.3983629 22.1369548,25.7680764 21.9268593,24.8976808 L21.866832,24.8976808 C21.776791,25.3178718 21.5666956,25.9181447 21.2365455,26.728513 C21.2065318,26.7585267 21.2065318,26.818554 21.1765182,26.8485676 L16.4943899,35.4324694 C16.2842944,35.8226468 15.8941171,36.0627559 15.4439125,36.0627559 L11.1819752,36.0627559 C10.2515523,36.0627559 9.68129305,35.0122784 10.191525,34.2319237 L17.6349084,22.6466577 C17.8750175,22.2564803 17.8750175,21.776262 17.6649221,21.4160982 L10.8518252,9.83083221 C10.4016205,9.05047745 10.9718797,8.0300137 11.8722889,8.0300137 L16.3143081,8.0300137 C16.7645128,8.0300137 17.1847037,8.30013652 17.3947993,8.69031377 L21.2665591,16.6139155 C21.5967092,17.3042293 21.8968456,18.0845841 22.1369548,18.924966 L22.1969821,18.924966 C22.4370912,18.1746249 22.7372276,17.3942702 23.0973913,16.5839018 C23.127405,16.5538881 23.127405,16.5238745 23.1574186,16.4638473 L27.4193559,8.6302865 C27.6294514,8.24010912 28.0196287,8 28.4698334,8 L32.3115796,8 C33.2420025,8 33.8122617,9.02046387 33.3320435,9.80081863 L26.3388647,21.2660301 C26.0987556,21.6562075 26.0987556,22.1364257 26.3388647,22.4965894 L34.6526437,36.0327423 L34.6526437,36.0327423 Z" id="路径" fill="#FFFFFF" fill-rule="nonzero"></path>
            </g>
        </g>
    </g>
</svg>