<?xml version="1.0" encoding="UTF-8"?>
<svg width="75px" height="75px" viewBox="0 0 75 75" version="1.1" xmlns="http://www.w3.org/2000/svg" xmlns:xlink="http://www.w3.org/1999/xlink">
    <title>x</title>
    <g id="页面-1" stroke="none" stroke-width="1" fill="none" fill-rule="evenodd">
        <g id="x">
            <rect id="矩形备份-3" fill="#09CC6E" x="0" y="0" width="75" height="75"></rect>
            <path d="M58.0215518,61.7830834 L47.1245531,61.7830834 C46.3571588,61.7830834 45.6920837,61.3738065 45.3339665,60.7087314 L37.3019065,45.9236017 C36.9949488,45.3608458 36.6879912,44.2864938 36.3298738,42.802865 L36.2275545,42.802865 C36.0740756,43.5190995 35.7159584,44.542292 35.1532026,45.9236017 C35.1020428,45.9747614 35.1020428,46.0770806 35.0508833,46.1282401 L27.0699828,60.7598909 C26.7118655,61.424966 26.0467906,61.8342429 25.2793963,61.8342429 L18.0147304,61.8342429 C16.4287823,61.8342429 15.4567495,60.0436563 16.326463,58.7135062 L29.0140484,38.9658937 C29.4233253,38.3008186 29.4233253,37.4822648 29.0652081,36.8683492 L17.4519747,17.1207367 C16.6845804,15.7905866 17.6566132,14.0511597 19.1914016,14.0511597 L26.7630252,14.0511597 C27.5304195,14.0511597 28.2466541,14.5115963 28.6047715,15.1766712 L35.2043621,28.6828105 C35.7671179,29.8594817 36.2787141,31.1896319 36.6879912,32.622101 L36.7903104,32.622101 C37.1995873,31.3431106 37.7111834,30.0129604 38.3250988,28.6316508 C38.3762585,28.5804911 38.3762585,28.5293316 38.427418,28.4270123 L45.6920839,15.074352 C46.0502013,14.4092769 46.7152762,14 47.4826705,14 L54.0311016,14 C55.6170497,14 56.5890825,15.7394271 55.7705287,17.0695772 L43.8503376,36.6125513 C43.4410607,37.2776263 43.4410607,38.0961801 43.8503376,38.7100955 L58.0215518,61.7830834 L58.0215518,61.7830834 Z" id="路径" fill="#FFFFFF" fill-rule="nonzero"></path>
        </g>
    </g>
</svg>