<?xml version="1.0" encoding="UTF-8"?>
<svg width="22px" height="22px" viewBox="0 0 22 22" version="1.1" xmlns="http://www.w3.org/2000/svg" xmlns:xlink="http://www.w3.org/1999/xlink">
    <title>icon/delete/solid</title>
    <g id="页面-1" stroke="none" stroke-width="1" fill="none" fill-rule="evenodd">
        <g id="弹窗" transform="translate(-180.000000, -610.000000)">
            <g id="添加图片2" transform="translate(80.000000, 443.000000)">
                <g id="网页封面" transform="translate(24.000000, 80.000000)">
                    <g id="编组备份" transform="translate(0.000000, 28.000000)">
                        <g id="delete/solid" transform="translate(76.000000, 59.000000)">
                            <rect id="矩形" fill="#000000" fill-rule="nonzero" opacity="0" x="0" y="0" width="22" height="22"></rect>
                            <path d="M7.85714286,4.71428571 L7.85714286,2.82857143 C7.85714286,2.6452381 7.91607143,2.49464286 8.03392857,2.37678571 C8.15178571,2.25892857 8.30238095,2.2 8.48571429,2.2 L13.5142857,2.2 C13.697619,2.2 13.8482143,2.25892857 13.9660714,2.37678571 C14.0839286,2.49464286 14.1428571,2.6452381 14.1428571,2.82857143 L14.1428571,4.71428571 L19.1714286,4.71428571 C19.3547619,4.71428571 19.5053571,4.77321429 19.6232143,4.89107143 C19.7410714,5.00892857 19.8,5.15952381 19.8,5.34285714 C19.8,5.52619048 19.7410714,5.67678571 19.6232143,5.79464286 C19.5053571,5.9125 19.3547619,5.97142857 19.1714286,5.97142857 L2.82857143,5.97142857 C2.6452381,5.97142857 2.49464286,5.9125 2.37678571,5.79464286 C2.25892857,5.67678571 2.2,5.52619048 2.2,5.34285714 C2.2,5.15952381 2.25892857,5.00892857 2.37678571,4.89107143 C2.49464286,4.77321429 2.6452381,4.71428571 2.82857143,4.71428571 L7.85714286,4.71428571 Z M9.11428571,4.71428571 L12.8857143,4.71428571 L12.8857143,3.45714286 L9.11428571,3.45714286 L9.11428571,4.71428571 Z M4.71428571,19.8 C4.53095238,19.8 4.38035714,19.7410714 4.2625,19.6232143 C4.14464286,19.5053571 4.08571429,19.3547619 4.08571429,19.1714286 L4.08571429,5.97142857 L17.9142857,5.97142857 L17.9142857,19.1714286 C17.9142857,19.3547619 17.8553571,19.5053571 17.7375,19.6232143 C17.6196429,19.7410714 17.4690476,19.8 17.2857143,19.8 L4.71428571,19.8 Z M9.11428571,16.0285714 C9.29761905,16.0285714 9.44821429,15.9696429 9.56607143,15.8517857 C9.68392857,15.7339286 9.74285714,15.5833333 9.74285714,15.4 L9.74285714,9.11428571 C9.74285714,8.93095238 9.68392857,8.78035714 9.56607143,8.6625 C9.44821429,8.54464286 9.29761905,8.48571429 9.11428571,8.48571429 C8.93095238,8.48571429 8.78035714,8.54464286 8.6625,8.6625 C8.54464286,8.78035714 8.48571429,8.93095238 8.48571429,9.11428571 L8.48571429,15.4 C8.48571429,15.5833333 8.54464286,15.7339286 8.6625,15.8517857 C8.78035714,15.9696429 8.93095238,16.0285714 9.11428571,16.0285714 Z M12.8857143,16.0285714 C13.0690476,16.0285714 13.2196429,15.9696429 13.3375,15.8517857 C13.4553571,15.7339286 13.5142857,15.5833333 13.5142857,15.4 L13.5142857,9.11428571 C13.5142857,8.93095238 13.4553571,8.78035714 13.3375,8.6625 C13.2196429,8.54464286 13.0690476,8.48571429 12.8857143,8.48571429 C12.702381,8.48571429 12.5517857,8.54464286 12.4339286,8.6625 C12.3160714,8.78035714 12.2571429,8.93095238 12.2571429,9.11428571 L12.2571429,15.4 C12.2571429,15.5833333 12.3160714,15.7339286 12.4339286,15.8517857 C12.5517857,15.9696429 12.702381,16.0285714 12.8857143,16.0285714 Z" id="形状" fill="#FFFFFF"></path>
                        </g>
                    </g>
                </g>
            </g>
        </g>
    </g>
</svg>