<?xml version="1.0" encoding="UTF-8"?>
<svg width="14px" height="14px" viewBox="0 0 14 14" version="1.1" xmlns="http://www.w3.org/2000/svg" xmlns:xlink="http://www.w3.org/1999/xlink">
    <title>男</title>
    <g id="页面-1" stroke="none" stroke-width="1" fill="none" fill-rule="evenodd">
        <g id="客户---企业微信客户" transform="translate(-459.000000, -534.000000)" fill="#1890FF" fill-rule="nonzero">
            <g id="编组-28" transform="translate(296.000000, 288.000000)">
                <g id="编组-24" transform="translate(24.000000, 64.000000)">
                    <g id="-mockplus-" transform="translate(16.000000, 173.000000)">
                        <g id="编组" transform="translate(122.999994, 9.000000)">
                            <g id="男" transform="translate(0.000000, 0.000000)">
                                <path d="M13.3711603,0 L10.0565266,0 C9.70926438,0 9.42613616,0.283128232 9.42613616,0.630390483 C9.42613616,0.977652734 9.70926438,1.26078097 10.0565266,1.26078097 L11.8569718,1.26078097 L10.0299345,3.0878184 C8.97094107,2.22122701 7.61786975,1.70033364 6.14122313,1.70033364 C2.74994148,1.70033364 0,4.45027525 0,7.84312129 C0,11.2359673 2.74994148,13.985909 6.14278737,13.985909 C9.53563327,13.985909 12.2855747,11.2359673 12.2855747,7.84312129 C12.2855747,6.3805528 11.7740669,5.03686689 10.9199895,3.98256618 L12.7392056,2.16334997 L12.7392056,3.95440978 C12.7392056,4.30167203 13.0223338,4.58480026 13.369596,4.58480026 C13.7168583,4.58480026 14,4.30010779 14,3.95440978 L14,0.630390483 C14.0015507,0.283128232 13.7184225,0 13.3711603,0 L13.3711603,0 Z M10.6212188,9.73429274 C10.3771967,10.3130632 10.0252417,10.8323923 9.57943211,11.2797662 C9.13205824,11.7271401 8.61272913,12.0775308 8.03395874,12.3215529 C7.43641741,12.5749605 6.79976998,12.7032286 6.14278737,12.7032286 C5.48580477,12.7032286 4.84915734,12.5749605 4.25161601,12.3215529 C3.67284562,12.0775308 3.15351651,11.7255758 2.70614264,11.2797662 C2.25876877,10.8323923 1.90837805,10.3130632 1.66435594,9.73429274 C1.41094836,9.13675139 1.28268033,8.50010393 1.28268033,7.84312129 C1.28268033,7.18613866 1.41094836,6.5494912 1.66435594,5.95194984 C1.90837805,5.37317943 2.26033302,4.85385029 2.70614264,4.4064764 C3.15351651,3.95910251 3.67284562,3.60871177 4.25161601,3.36468965 C4.84915734,3.11128206 5.48580477,2.98301402 6.14278737,2.98301402 C6.79976998,2.98301402 7.43641741,3.11128206 8.03395874,3.36468965 C8.61272913,3.60871177 9.13205824,3.96066676 9.57943211,4.4064764 C10.026806,4.85385029 10.3771967,5.37317943 10.6212188,5.95194984 C10.8746264,6.5494912 11.0028944,7.18613866 11.0028944,7.84312129 C11.0028944,8.50010393 10.8746264,9.13675139 10.6212188,9.73429274 Z" id="Shape"></path>
                            </g>
                        </g>
                    </g>
                </g>
            </g>
        </g>
    </g>
</svg>