<?xml version="1.0" encoding="UTF-8"?>
<svg width="14px" height="14px" viewBox="0 0 14 14" version="1.1" xmlns="http://www.w3.org/2000/svg" xmlns:xlink="http://www.w3.org/1999/xlink">
    <title>小程序</title>
    <g id="页面-1" stroke="none" stroke-width="1" fill="none" fill-rule="evenodd">
        <g id="商品管理-添加商品（虚拟）" transform="translate(-879.000000, -1126.000000)" fill-rule="nonzero">
            <g id="编组-8" transform="translate(864.000000, 892.000000)">
                <g id="小程序" transform="translate(15.000000, 234.000000)">
                    <rect id="矩形" fill="#000000" opacity="0" x="0" y="0" width="13.9973755" height="13.9973755"></rect>
                    <path d="M10.1244767,0.512653877 C12.2617009,0.512653877 14,2.09260764 14,4.04611635 C14,4.65325252 13.8215335,5.24726614 13.4995938,5.78266575 C13.0123102,6.56476911 12.2328313,7.14391052 11.2897582,7.41948385 C11.0897057,7.48219338 10.8817363,7.5160694 10.672124,7.52008998 C10.4781395,7.52361821 10.2909034,7.4488974 10.1526473,7.31278095 C10.0143912,7.1766645 9.93675934,6.9906166 9.93726176,6.79660064 C9.93726176,6.38980191 10.2609511,6.07398613 10.672124,6.07398613 C10.7009936,6.07398613 10.7613572,6.07398613 10.8348435,6.04599138 C11.4682247,5.87102418 11.9686309,5.51059176 12.2485784,5.03118165 C12.4392926,4.72848841 12.5285259,4.3925514 12.5285259,4.04611635 C12.5285259,2.90008123 11.4524777,1.96138224 10.1402237,1.96138224 C9.68761316,1.96205511 9.24241612,2.07636246 8.84546648,2.29381991 C8.15084672,2.68399675 7.73967381,3.33487471 7.73967381,4.04611635 L7.73967381,10.1139786 C7.73967381,11.343998 7.04592889,12.4742861 5.89639443,13.1120415 C5.27876023,13.4593514 4.58414047,13.6351934 3.87727301,13.6351934 C1.74092358,13.6351934 0.00174967194,12.0543648 0.00174967194,10.1008561 C0.00174967194,9.49459476 0.181091045,8.89970631 0.502155846,8.36430669 C0.98943948,7.58220334 1.76979316,7.00306193 2.7119915,6.72836343 C2.97619196,6.65575205 3.1546585,6.6277573 3.3296257,6.6277573 C3.74342311,6.6277573 4.06536274,6.94707242 4.06536274,7.35037181 C4.06586517,7.54438776 3.98823333,7.73043567 3.8499772,7.86655212 C3.71172107,8.00266857 3.52448506,8.07738938 3.33050053,8.07386115 C3.30075611,8.07386115 3.24039243,8.07386115 3.16778104,8.1018559 C2.53352496,8.28994564 2.03399363,8.65300256 1.75404612,9.11579079 C1.56245704,9.41935887 1.47409861,9.75442105 1.47409861,10.1017309 C1.47409861,11.247766 2.55014685,12.1855902 3.8746485,12.1855902 C4.3274797,12.1853321 4.77299082,12.0713221 5.17028057,11.8540274 C5.8640255,11.4629757 6.2751984,10.8120977 6.2751984,10.1017309 L6.2751984,4.04874086 C6.2751984,2.81872149 6.96894332,1.68930825 8.11847779,1.050678 C8.72574112,0.692170338 9.41931414,0.506148792 10.1244767,0.512653877 Z" id="路径" fill="#6B6DEF"></path>
                </g>
            </g>
        </g>
    </g>
</svg>