<?xml version="1.0" encoding="UTF-8"?>
<svg width="400px" height="264px" viewBox="0 0 400 264" version="1.1" xmlns="http://www.w3.org/2000/svg" xmlns:xlink="http://www.w3.org/1999/xlink">
    <title>编组 29</title>
    <defs>
        <rect id="path-1" x="0" y="0" width="400" height="264"></rect>
        <linearGradient x1="50.00075%" y1="8.09964857%" x2="50.00075%" y2="-0.000437486329%" id="linearGradient-3">
            <stop stop-color="#E6E6E6" stop-opacity="0" offset="0%"></stop>
            <stop stop-color="#E6E6E6" offset="100%"></stop>
        </linearGradient>
        <linearGradient x1="23.3942298%" y1="86.506218%" x2="76.628283%" y2="13.5110277%" id="linearGradient-4">
            <stop stop-color="#D7D7D7" offset="0%"></stop>
            <stop stop-color="#FAFAFA" offset="48.5%"></stop>
            <stop stop-color="#FAFAFA" offset="100%"></stop>
        </linearGradient>
        <linearGradient x1="24.1595139%" y1="85.9269949%" x2="75.8458145%" y2="14.0336493%" id="linearGradient-5">
            <stop stop-color="#CCCCCC" offset="0%"></stop>
            <stop stop-color="#FAFAFA" offset="100%"></stop>
        </linearGradient>
        <radialGradient cx="49.9724998%" cy="50.0106964%" fx="49.9724998%" fy="50.0106964%" r="49.9493579%" gradientTransform="translate(0.499725,0.500107),scale(0.999816,1.000000),translate(-0.499725,-0.500107)" id="radialGradient-6" offset="0%">
            <stop stop-color="#FAFAFA"></stop>
        </radialGradient>
        <radialGradient cx="49.9709712%" cy="50.0106964%" fx="49.9709712%" fy="50.0106964%" r="49.9493579%" gradientTransform="translate(0.499710,0.500107),scale(0.999847,1.000000),translate(-0.499710,-0.500107)" id="radialGradient-7" offset="0%">
            <stop stop-color="#FAFAFA"></stop>
        </radialGradient>
        <radialGradient cx="50.112953%" cy="50.0993898%" fx="50.112953%" fy="50.0993898%" r="49.9794525%" gradientTransform="translate(0.501130,0.500994),scale(1.000000,0.999910),translate(-0.501130,-0.500994)" id="radialGradient-8" offset="0%">
            <stop stop-color="#FAFAFA"></stop>
        </radialGradient>
        <linearGradient x1="0%" y1="100%" x2="100%" y2="0%" id="linearGradient-9">
            <stop stop-color="#CCCCCC" offset="0%"></stop>
            <stop stop-color="#FFFFFF" stop-opacity="0.702" offset="100%"></stop>
        </linearGradient>
        <linearGradient x1="20.6797797%" y1="67.1618691%" x2="79.2953735%" y2="32.8299907%" id="linearGradient-10">
            <stop stop-color="#CCCCCC" offset="0%"></stop>
            <stop stop-color="#CCCCCC" stop-opacity="0.702" offset="49.5%"></stop>
            <stop stop-color="#CCCCCC" offset="49.8%"></stop>
            <stop stop-color="#FFFFFF" stop-opacity="0.302" offset="100%"></stop>
        </linearGradient>
        <linearGradient x1="23.9854878%" y1="80.4545455%" x2="76.0145122%" y2="19.5454545%" id="linearGradient-11">
            <stop stop-color="#CCCCCC" offset="0%"></stop>
            <stop stop-color="#F0F0F0" offset="100%"></stop>
        </linearGradient>
        <linearGradient x1="14.9298536%" y1="19.654214%" x2="85.0873001%" y2="80.3667895%" id="linearGradient-12">
            <stop stop-color="#E6E6E6" stop-opacity="0.4" offset="40%"></stop>
            <stop stop-color="#FFFFFF" offset="44.3%"></stop>
            <stop stop-color="#CCCCCC" offset="60%"></stop>
        </linearGradient>
        <linearGradient x1="15.796675%" y1="73.3943769%" x2="84.2087546%" y2="26.6071084%" id="linearGradient-13">
            <stop stop-color="#E6E6E6" offset="0%"></stop>
            <stop stop-color="#FFFFFF" offset="76.1%"></stop>
            <stop stop-color="#F0F0F0" offset="100%"></stop>
        </linearGradient>
        <linearGradient x1="17.276859%" y1="90.4494382%" x2="82.723141%" y2="9.5505618%" id="linearGradient-14">
            <stop stop-color="#CCCCCC" offset="0%"></stop>
            <stop stop-color="#FFFFFF" offset="76.1%"></stop>
            <stop stop-color="#F0F0F0" offset="100%"></stop>
        </linearGradient>
        <linearGradient x1="5.50389793%" y1="0.0139401966%" x2="94.4988584%" y2="99.9902419%" id="linearGradient-15">
            <stop stop-color="#E6E6E6" stop-opacity="0.4" offset="40%"></stop>
            <stop stop-color="#FFFFFF" offset="44.3%"></stop>
            <stop stop-color="#CCCCCC" offset="60%"></stop>
        </linearGradient>
        <linearGradient x1="86.0951306%" y1="100.005228%" x2="13.8938589%" y2="0.0061784723%" id="linearGradient-16">
            <stop stop-color="#B5B5B5" offset="0%"></stop>
            <stop stop-color="#F1F1F1" offset="100%"></stop>
        </linearGradient>
    </defs>
    <g id="页面-1" stroke="none" stroke-width="1" fill="none" fill-rule="evenodd">
        <g id="客户详情-企业微信客户-筛选条件暂无数据" transform="translate(-1223.000000, -713.000000)">
            <g id="编组-29" transform="translate(1223.000000, 713.000000)">
                <g id="编组-24">
                    <mask id="mask-2" fill="white">
                        <use xlink:href="#path-1"></use>
                    </mask>
                    <use id="蒙版" fill-opacity="0" fill="#FFFFFF" xlink:href="#path-1"></use>
                    <g mask="url(#mask-2)">
                        <g transform="translate(-168.967742, 12.490384)">
                            <path d="M368.663594,134 C572.270968,134 737.327189,299.059908 737.327189,502.677419 C737.327189,706.294931 572.270968,871.35023 368.663594,871.35023 C165.056221,871.35023 0,706.290323 0,502.677419 C0,299.064516 165.0553,134 368.663594,134 Z" id="椭圆_1" stroke="none" fill="url(#linearGradient-3)" fill-rule="evenodd"></path>
                            <path d="M239.659447,160.600399 C240.270269,160.600399 240.765438,161.095568 240.765438,161.70639 L240.765438,169.874593 C240.765438,170.485415 240.270269,170.980584 239.659447,170.980584 C239.048625,170.980584 238.553456,170.485415 238.553456,169.874593 L238.553456,161.70639 C238.553456,161.095568 239.048625,160.600399 239.659447,160.600399 Z" id="圆角矩形_1" stroke="none" fill="#B3B3B3" fill-rule="evenodd"></path>
                            <path d="M239.596774,138.952934 C244.357143,138.952934 247.461751,146.053395 248.214286,152.083348 C248.960369,158.047404 247.121198,163.002242 239.596774,163.002242 C231.818894,163.002242 230.282028,158.05616 230.979263,152.083348 C231.731797,145.603625 234.836406,138.952934 239.596774,138.952934 Z" id="椭圆_7" stroke="none" fill="url(#linearGradient-4)" fill-rule="evenodd"></path>
                            <path d="M476.27788,207.819754 L476.710138,207.819754 C477.32096,207.819754 477.816129,208.314923 477.816129,208.925745 L477.816129,219.173671 C477.816129,219.784493 477.32096,220.279662 476.710138,220.279662 L476.27788,220.279662 C475.667058,220.279662 475.171889,219.784493 475.171889,219.173671 L475.171889,208.925745 C475.171889,208.314923 475.667058,207.819754 476.27788,207.819754 Z" id="圆角矩形_1-2" stroke="none" fill="#B3B3B3" fill-rule="evenodd"></path>
                            <path d="M476.680645,209.801321 C467.723041,209.801321 465.953456,205.503625 466.753917,200.312842 C467.003021,198.649873 467.514614,197.03701 468.269585,195.534501 C467.878594,194.162113 467.878594,192.70781 468.269585,191.335422 C469.600922,185.654777 473.826728,181.699017 476.728571,181.699017 C479.751613,181.699017 483.856682,185.892565 485.187558,191.335422 C485.596765,192.730686 485.542598,194.221012 485.03318,195.582888 C485.804843,197.066448 486.336625,198.662883 486.608756,200.312842 C487.466359,205.493948 485.348387,209.801321 476.680645,209.801321 Z" id="椭圆_8" stroke="none" fill="url(#linearGradient-5)" fill-rule="evenodd"></path>
                            <path d="M284.106452,128.816067 C283.842736,127.634191 282.900258,126.723069 281.710138,126.499478 C280.448387,126.207004 280.443164,125.892872 281.69447,125.557081 C282.876346,125.293365 283.787469,124.350887 284.01106,123.160768 C284.303533,121.898402 284.617665,121.893026 284.953456,123.144639 C285.216951,124.326639 286.159533,125.237863 287.34977,125.461229 C288.612135,125.754316 288.617512,126.068448 287.365899,126.403625 C286.183898,126.667119 285.272674,127.609702 285.049309,128.799938 C284.755914,130.061997 284.441628,130.067373 284.106452,128.816067 Z" id="多边形_2" stroke="none" fill="#CCCCCC" fill-rule="evenodd"></path>
                            <path d="M283.895392,128.432657 C283.632119,127.250533 282.689431,126.339207 281.499078,126.116067 C280.236713,125.82298 280.231336,125.508848 281.482949,125.173671 C282.665012,124.910287 283.576286,123.967652 283.799539,122.777358 C284.092627,121.515607 284.406912,121.510384 284.742396,122.761689 C285.00578,123.943752 285.948415,124.855026 287.13871,125.078279 C288.400461,125.370752 288.405837,125.684885 287.154839,126.020676 C285.972776,126.284059 285.061502,127.226695 284.838249,128.416989 C284.545161,129.677819 284.230876,129.683041 283.895392,128.432657 Z" id="多边形_2-2" stroke="none" fill="url(#radialGradient-6)" fill-rule="evenodd"></path>
                            <path d="M502.078802,140.797634 C501.815086,139.615758 500.872608,138.704635 499.682488,138.481044 C498.420737,138.188571 498.415515,137.874439 499.66682,137.538648 C500.848697,137.274932 501.759819,136.332454 501.98341,135.142335 C502.275883,133.879969 502.590015,133.874593 502.925806,135.126206 C503.189301,136.308206 504.131884,137.21943 505.32212,137.442795 C506.584178,137.735883 506.589555,138.050015 505.338249,138.385192 C504.156248,138.648686 503.245025,139.591269 503.021659,140.781505 C502.728264,142.043564 502.413978,142.04894 502.078802,140.797634 Z" id="多边形_2-3" stroke="none" fill="#CCCCCC" fill-rule="evenodd"></path>
                            <path d="M501.867742,140.414224 C501.604469,139.232099 500.661781,138.320774 499.471429,138.097634 C498.20937,137.804547 498.203994,137.490415 499.4553,137.155238 C500.637362,136.891854 501.548636,135.949219 501.771889,134.758925 C502.064977,133.497173 502.379263,133.491951 502.714747,134.743256 C502.97813,135.925319 503.920765,136.836593 505.11106,137.059846 C506.372811,137.352319 506.378187,137.666451 505.127189,138.002242 C503.945126,138.265626 503.033852,139.208261 502.810599,140.398556 C502.517512,141.659385 502.203226,141.664608 501.867742,140.414224 Z" id="多边形_2-4" stroke="none" fill="url(#radialGradient-7)" fill-rule="evenodd"></path>
                            <path d="M489.345622,125.285192 C489.167069,124.48594 488.529718,123.869792 487.724885,123.718372 C486.871429,123.520829 486.867896,123.308387 487.714286,123.081044 C488.513723,122.902823 489.130024,122.265315 489.281106,121.460307 C489.479263,120.606851 489.691705,120.603318 489.918433,121.449708 C490.096654,122.249146 490.734163,122.865446 491.539171,123.016528 C492.392627,123.214685 492.39616,123.427127 491.54977,123.653855 C490.750518,123.832408 490.13437,124.46976 489.982949,125.274593 C489.784793,126.128663 489.57235,126.132196 489.345622,125.285192 Z" id="多边形_2-5" stroke="none" fill="url(#radialGradient-8)" fill-rule="evenodd"></path>
                            <path d="M321.017512,37.9160674 C318.612751,40.8607496 318.591199,45.0850054 320.965786,48.0540726 C323.340373,51.0231398 327.466081,51.9305181 330.867281,50.2317356 C328.310025,51.6687911 325.174134,51.6039518 322.678464,50.0624194 C320.182795,48.520887 318.720977,45.7458005 318.86119,42.8157784 C319.001403,39.8857564 320.72153,37.2629381 323.352995,35.9667586 C322.457517,36.4619418 321.664828,37.1235588 321.017512,37.9160674 Z" id="椭圆_9" stroke="none" fill="#CCCCCC" fill-rule="evenodd"></path>
                            <circle id="椭圆_9-2" stroke="none" fill="url(#linearGradient-9)" fill-rule="nonzero" cx="327.267281" cy="43.0156065" r="8.06451613"></circle>
                            <path d="M313.101382,35.2391089 C312.014747,37.2755144 317.629954,42.3911826 325.642857,46.6676803 C332.615668,50.3870351 339.104608,52.2437171 341.387558,51.3188324 C339.456221,52.5962517 332.658065,50.7474038 325.323041,46.8349614 C317.310138,42.5607678 311.694931,37.4450996 312.781567,35.40639 C312.945911,35.1260728 313.204926,34.9136315 313.511982,34.8073116 C313.341015,34.9144654 313.199802,35.0629687 313.101382,35.2391089 L313.101382,35.2391089 Z" id="椭圆_11" stroke="none" fill="#CCCCCC" fill-rule="evenodd"></path>
                            <path d="M325.642857,46.663072 C317.629954,42.3888784 312.014747,37.2732102 313.101382,35.2345006 C314.188018,33.1957909 321.563594,35.0114591 329.576498,39.2856526 C337.589401,43.5598462 343.204147,48.6755144 342.117972,50.7142241 C341.031797,52.7529337 333.6553,50.9368047 325.642857,46.663072 Z M340.220737,49.3045466 C341.06129,47.7285098 336.170507,43.4787402 329.299078,39.8114591 C322.42765,36.144178 316.171889,34.4506296 315.331336,36.0266665 C314.490783,37.6027033 319.381567,41.8524729 326.252995,45.519754 C333.124424,49.1870351 339.380184,50.8805835 340.220737,49.3045466 L340.220737,49.3045466 Z M323.333641,35.9368047 L322.054839,36.6059291 L322.069585,37.4128416 L335.266359,43.9487863 L335.38894,41.8478646 L323.333641,35.9368047 Z" id="形状_15" stroke="none" fill="url(#linearGradient-10)" fill-rule="evenodd"></path>
                            <path d="M424.157529,75.7516805 C424.157529,75.7516805 448.901619,59.5589533 437.948574,52.7380442 C426.995529,45.9171351 425.179708,53.1991487 425.79932,56.6198623 C426.418932,60.040576 443.480425,60.0760669 443.530663,49.4107714 C443.596335,35.5529578 468.157529,14.7516805 468.157529,14.7516805" id="形状_4" stroke="url(#linearGradient-11)" stroke-width="1" fill="none" stroke-dasharray="6" transform="translate(446.157529, 45.251681) rotate(37.000000) translate(-446.157529, -45.251681) "></path>
                            <g id="编组-21" stroke="none" stroke-width="1" fill="none" fill-rule="evenodd" transform="translate(505.748432, 31.224774) rotate(-3.000000) translate(-505.748432, -31.224774) translate(475.939190, 1.519385)">
                                <polygon id="形状_5" fill="#FFFFFF" transform="translate(35.781648, 26.277651) rotate(37.000000) translate(-35.781648, -26.277651) " points="54.5869478 11.6248864 22.5224317 40.4317988 16.9763487 40.9304163"></polygon>
                                <g id="编组-23" transform="translate(29.809241, 29.705389) rotate(37.000000) translate(-29.809241, -29.705389) translate(8.297029, 8.720827)">
                                    <g id="编组-22" transform="translate(0.000000, 0.000000)">
                                        <polygon id="形状_5-2" fill="url(#linearGradient-12)" points="43.024424 0 10.9599078 28.8069124 5.41382488 29.30553"></polygon>
                                        <polyline id="形状_6" fill="url(#linearGradient-13)" points="5.41382488 29.30553 -5.23902478e-14 24.9184332 42.4373272 0.282488479"></polyline>
                                        <polyline id="形状_6-2" fill="url(#linearGradient-14)" points="9.67741935 33.6741935 15.2073733 41.9691244 42.8571429 0.955299539"></polyline>
                                        <polyline id="形状_5-4" fill="url(#linearGradient-15)" points="10.5898618 28.759447 9.45115207 34.2101382 42.1322581 1.15253456"></polyline>
                                    </g>
                                    <polyline id="形状_5-3" fill="#FFFFFF" points="10.5898618 28.759447 9.45115207 34.2101382 42.1322581 1.15253456"></polyline>
                                </g>
                            </g>
                        </g>
                    </g>
                </g>
                <g id="筛选" transform="translate(141.000000, 69.000000)">
                    <rect id="矩形" fill="#000000" fill-rule="nonzero" opacity="0" x="0" y="0" width="118" height="118"></rect>
                    <path d="M94.03125,74.5944375 L94.03125,5.53125 C94.03125,2.47642498 96.507675,0 99.5625,0 C102.617325,0 105.09375,2.47642498 105.09375,5.53125 L105.09375,74.5944375 C112.573844,76.943375 118,83.9311875 118,92.1875 C118,100.443813 112.573844,107.431625 105.09375,109.780563 L105.09375,112.46875 C105.09375,115.523575 102.617325,118 99.5625,118 C96.507675,118 94.03125,115.523575 94.03125,112.46875 L94.03125,109.780563 C86.5511562,107.431625 81.125,100.443813 81.125,92.1875 C81.125,83.9311875 86.5511562,76.943375 94.03125,74.5944375 Z M53.46875,19.2819375 L53.46875,5.53125 C53.46875,2.47642498 55.945175,0 59,0 C62.054825,0 64.53125,2.47642498 64.53125,5.53125 L64.53125,19.2819375 C72.0113438,21.630875 77.4375,28.6186875 77.4375,36.875 C77.4375,47.0580312 69.1830312,55.3125 59,55.3125 C48.8169688,55.3125 40.5625,47.0580312 40.5625,36.875 C40.5625,28.6186875 45.9886563,21.630875 53.46875,19.2819375 Z M12.90625,59.8444375 L12.90625,5.53125 C12.90625,2.47642498 15.382675,0 18.4375,0 C21.492325,0 23.96875,2.47642498 23.96875,5.53125 L23.96875,59.8444375 C31.4488438,62.193375 36.875,69.1811875 36.875,77.4375 C36.875,85.6938125 31.4488437,92.681625 23.96875,95.0305625 L23.96875,112.46875 C23.96875,115.523575 21.492325,118 18.4375,118 C15.382675,118 12.90625,115.523575 12.90625,112.46875 L12.90625,95.0305625 C5.42615625,92.681625 0,85.6938125 0,77.4375 C0,69.1811875 5.42615625,62.193375 12.90625,59.8444375 Z M59,44.25 C63.0731,44.25 66.375,40.9481 66.375,36.875 C66.375,32.8019 63.0731,29.5 59,29.5 C54.9269,29.5 51.625,32.8019 51.625,36.875 C51.625,40.9481 54.9269,44.25 59,44.25 Z M99.5625,99.5625 C103.6356,99.5625 106.9375,96.2606 106.9375,92.1875 C106.9375,88.1144 103.6356,84.8125 99.5625,84.8125 C95.4894,84.8125 92.1875,88.1144 92.1875,92.1875 C92.1875,96.2606 95.4894,99.5625 99.5625,99.5625 Z M18.4375,84.8125 C22.5106,84.8125 25.8125,81.5106 25.8125,77.4375 C25.8125,73.3644 22.5106,70.0625 18.4375,70.0625 C14.3644,70.0625 11.0625,73.3644 11.0625,77.4375 C11.0625,81.5106 14.3644,84.8125 18.4375,84.8125 Z M64.53125,112.46875 C64.53125,115.523575 62.054825,118 59,118 C55.945175,118 53.46875,115.523575 53.46875,112.46875 L53.46875,66.375 C53.46875,63.320175 55.945175,60.84375 59,60.84375 C62.054825,60.84375 64.53125,63.320175 64.53125,66.375 L64.53125,112.46875 Z" id="形状" fill="url(#linearGradient-16)"></path>
                </g>
            </g>
        </g>
    </g>
</svg>