<?xml version="1.0" encoding="UTF-8"?>
<svg width="44px" height="44px" viewBox="0 0 44 44" version="1.1" xmlns="http://www.w3.org/2000/svg" xmlns:xlink="http://www.w3.org/1999/xlink">
    <title>编组</title>
    <g id="页面-1" stroke="none" stroke-width="1" fill="none" fill-rule="evenodd">
        <g id="编辑知识" transform="translate(-895.000000, -985.000000)">
            <g id="编组" transform="translate(895.000000, 985.000000)">
                <rect id="Rectangle-Copy" fill="#FC495B" x="0" y="0" width="44" height="44" rx="4"></rect>
                <path d="M32.9849932,37.787176 C29.803547,37.787176 26.9522511,32.3246931 25.4515689,28.7830833 C22.9304229,27.7326058 20.1391541,26.7421556 17.4379263,26.1118691 C15.0668486,27.6725784 11.0450204,30.0136426 7.9536153,30.0136426 C6.03274212,30.0136426 4.65211457,29.053206 4.14188264,27.372442 C3.75170526,25.9918145 4.08185536,25.0313779 4.50204644,24.521146 C5.31241477,23.4106412 6.99317871,22.840382 9.51432468,22.840382 C11.5552524,22.840382 14.1364257,23.2005457 17.0177353,23.8908595 C18.8785811,22.5702592 20.7694406,21.0395634 22.4502047,19.4188267 C21.6998636,15.8772169 20.8894953,10.1446112 22.9604366,7.50341065 C23.9809005,6.24283766 25.5416098,5.8226467 27.4324693,6.39290592 C29.5034106,6.99317871 30.2837654,8.2537517 30.5238745,9.24420199 C31.3942701,12.6957709 27.4324693,17.3478854 24.7612551,20.0791269 C25.3615279,22.4502047 26.1418826,24.9413371 27.1023192,27.2223738 C30.9440655,28.9331514 35.5061392,31.484311 36.0163711,34.2755799 C36.2264667,35.2360165 35.9263301,36.1364257 35.1459754,36.9167804 C34.4556616,37.4570259 33.7353341,37.787176 32.9849932,37.787176 L32.9849932,37.787176 Z M28.2728512,30.0736699 C30.1937244,33.9754434 32.0245565,35.8062756 32.9849932,35.8062756 C33.1350615,35.8062756 33.3451569,35.7462483 33.6452933,35.5061392 C34.005457,35.1459755 34.005457,34.9058664 33.9454297,34.6957709 C33.7353341,33.675307 32.1145975,31.994543 28.2728512,30.0736699 Z M9.51432468,24.8512961 C7.02319241,24.8512961 6.33287852,25.4515689 6.1227831,25.7216917 C6.06275582,25.8117327 5.88267398,26.0818554 6.06275582,26.7721693 C6.21282408,27.372442 6.63301503,28.0027285 7.9236016,28.0027285 C9.54433826,28.0027285 11.8854024,27.1023192 14.6166439,25.4815826 C12.6657572,25.0613916 10.9549795,24.8512961 9.51432468,24.8512961 Z M19.568895,24.5511597 C21.1896317,25.0013643 22.8703957,25.5716235 24.431105,26.1718963 C23.8608458,24.7012278 23.4106411,23.1705321 23.0204639,21.6998636 C21.8799454,22.6903138 20.7094134,23.6507504 19.568895,24.5511597 L19.568895,24.5511597 Z M25.8417462,8.19372442 C25.271487,8.19372442 24.8813097,8.40381996 24.521146,8.79399733 C23.4706685,10.1145976 23.350614,13.4461119 24.1609823,17.7080491 C27.2523875,14.4065484 28.9331514,11.3751705 28.5129605,9.75443392 C28.4529332,9.51432481 28.2728514,8.79399733 26.8321964,8.37380626 C26.442019,8.2537517 26.1418826,8.19372442 25.8417462,8.19372442 L25.8417462,8.19372442 Z" id="形状" fill="#FFFFFF" fill-rule="nonzero"></path>
            </g>
        </g>
    </g>
</svg>