<?xml version="1.0" encoding="UTF-8"?>
<svg width="75px" height="75px" viewBox="0 0 75 75" version="1.1" xmlns="http://www.w3.org/2000/svg" xmlns:xlink="http://www.w3.org/1999/xlink">
    <title>pd</title>
    <g id="页面-1" stroke="none" stroke-width="1" fill="none" fill-rule="evenodd">
        <g id="pd">
            <rect id="矩形备份-2" fill="#FC495B" x="0" y="0" width="75" height="75"></rect>
            <path d="M59.4609771,64.9390135 C54.0380575,64.9390135 49.177894,55.627963 46.6199129,49.5911281 C42.322505,47.8005415 37.5646604,46.112274 32.9602949,45.037922 C28.9186851,47.6982221 22.0632961,51.6886723 16.7938557,51.6886723 C13.51964,51.6886723 11.1662976,50.0515645 10.2965841,47.186626 C9.63150902,44.8332836 10.1942649,43.1961757 10.9104997,42.3264622 C12.2918093,40.4335564 15.1567478,39.4615237 19.4541558,39.4615237 C22.9330099,39.4615237 27.332737,40.075439 32.2440603,41.2521102 C35.4159565,39.001087 38.6390124,36.3919465 41.5039512,33.6293272 C40.2249607,27.5924922 38.8436511,17.8210052 42.3736647,13.3189588 C44.1130917,11.1702548 46.7733918,10.4540203 49.9964478,11.426053 C53.5264614,12.4492453 54.8566115,14.5979492 55.2658884,16.2862168 C56.7495173,22.1695728 49.9964478,30.0993135 45.4432417,34.7548388 C46.4664339,38.7964486 47.7965841,43.042697 49.4336919,46.9308278 C55.982123,49.846926 63.758385,54.1954935 64.6280985,58.9533382 C64.9862159,60.590446 64.4746196,62.1252344 63.1444695,63.4553846 C61.9677983,64.3762576 60.7399673,64.9390135 59.4609771,64.9390135 L59.4609771,64.9390135 Z M51.4289169,51.7909916 C54.7031326,58.4417419 57.8238691,61.5624786 59.4609771,61.5624786 C59.7167753,61.5624786 60.0748925,61.4601594 60.5864886,61.0508824 C61.200404,60.4369671 61.200404,60.0276902 61.0980847,59.6695728 C60.7399673,57.9301457 57.977348,55.0652072 51.4289169,51.7909916 Z M19.4541558,42.889218 C15.2079076,42.889218 14.0312362,43.9124103 13.673119,44.3728469 C13.5707997,44.5263259 13.2638421,44.9867623 13.5707997,46.1634337 C13.8265979,47.186626 14.5428325,48.2609779 16.742696,48.2609779 C19.5053153,48.2609779 23.4957655,46.7261893 28.1512908,43.96357 C24.8259156,43.2473354 21.9098174,42.889218 19.4541558,42.889218 Z M36.5926279,42.3776219 C39.3552472,43.1450162 42.220186,44.117049 44.8804858,45.1402412 C43.9084531,42.6334199 43.1410588,40.0242795 42.4759839,37.5174582 C40.5319184,39.2057255 38.5366934,40.8428333 36.5926279,42.3776219 L36.5926279,42.3776219 Z M47.284988,14.49563 C46.3129552,14.49563 45.6478801,14.8537474 45.0339648,15.5188225 C43.2433782,17.7698457 43.0387398,23.4485632 44.4200494,30.7132289 C49.6894901,25.0856708 52.5544286,19.9185494 51.838194,17.1559303 C51.7358748,16.7466534 51.4289171,15.5188225 48.9732553,14.8025877 C48.3081802,14.5979492 47.7965841,14.49563 47.284988,14.49563 L47.284988,14.49563 Z" id="形状" fill="#FFFFFF" fill-rule="nonzero"></path>
        </g>
    </g>
</svg>