<?xml version="1.0" encoding="UTF-8"?>
<svg width="44px" height="44px" viewBox="0 0 44 44" version="1.1" xmlns="http://www.w3.org/2000/svg" xmlns:xlink="http://www.w3.org/1999/xlink">
    <title>编组</title>
    <g id="页面-1" stroke="none" stroke-width="1" fill="none" fill-rule="evenodd">
        <g id="编辑知识" transform="translate(-947.000000, -985.000000)">
            <g id="编组" transform="translate(947.000000, 985.000000)">
                <rect id="Rectangle-Copy" fill="#FF822E" x="0" y="0" width="44" height="44" rx="4"></rect>
                <path d="M14.7912688,38.0545703 C13.260573,38.0545703 12,36.7939973 12,35.2633015 L12,9.00136433 C12,7.47066853 13.260573,6.21009554 14.7912688,6.21009554 L17.5825376,6.21009554 L17.5825376,35.2332879 C17.5525239,36.7939973 16.3219646,38.0545703 14.7912688,38.0545703 Z" id="路径" fill="#FFFFFF" fill-rule="nonzero"></path>
                <path d="M21.6944065,25.9290587 L12.2401091,25.9290587 L12.2401091,9.9918145 C12.2401091,7.77080492 14.0409276,6 16.2319236,6 L21.5443384,6 C26.7967259,6 31.2087313,10.0218281 31.6289223,15.154161 C31.8390178,17.9154161 30.9085948,20.6766712 29.0177353,22.7175989 C27.1268758,24.7585267 24.4556616,25.9290587 21.6944065,25.9290587 Z M17.8526603,20.3165075 L21.6944065,20.3165075 C22.8949522,20.3165075 24.0654842,19.8062756 24.8758527,18.9058664 C25.7162347,18.0054571 26.106412,16.8349251 26.0163711,15.6043657 C25.8362893,13.3533425 23.8553888,11.6125512 21.5443384,11.6125512 L17.8526603,11.6125512 L17.8526603,20.3165075 Z" id="形状" fill="#FFFFFF" fill-rule="nonzero"></path>
            </g>
        </g>
    </g>
</svg>