<?xml version="1.0" encoding="UTF-8"?>
<svg width="75px" height="75px" viewBox="0 0 75 75" version="1.1" xmlns="http://www.w3.org/2000/svg" xmlns:xlink="http://www.w3.org/1999/xlink">
    <title>p</title>
    <g id="页面-1" stroke="none" stroke-width="1" fill="none" fill-rule="evenodd">
        <g id="p">
            <rect id="矩形" fill="#FF822E" x="0" y="0" width="75" height="75"></rect>
            <g id="Group-43备份" transform="translate(21.000000, 10.000000)" fill="#FFFFFF" fill-rule="nonzero">
                <path d="M4.75784453,54.3986193 C2.14870396,54.3986193 0,52.2593478 0,49.6616609 L0,5.0935038 C0,2.49581687 2.14870396,0.356545327 4.75784453,0.356545327 L9.51568907,0.356545327 L9.51568907,49.6107259 C9.46452935,52.2593478 7.36698511,54.3986193 4.75784453,54.3986193 Z" id="路径"></path>
                <path d="M16.5245566,33.8208644 L0.409276904,33.8208644 L0.409276904,6.77435995 C0.409276904,3.00516719 3.47885389,0 7.21350617,0 L16.2687586,0 C25.2216918,0 32.7421557,6.82529488 33.4583903,15.5351863 C33.8165077,20.2212096 32.2305593,24.9072329 29.0075034,28.3708155 C25.7844475,31.8343981 21.2312414,33.8208644 16.5245566,33.8208644 Z M9.97612548,24.2960125 L16.5245566,24.2960125 C18.5709413,24.2960125 20.5661663,23.4301169 21.9474762,21.902066 C23.3799456,20.3740148 24.0450204,18.3875484 23.8915417,16.2992118 C23.584584,12.4790841 20.2080491,9.52485188 16.2687586,9.52485188 L9.97612548,9.52485188 L9.97612548,24.2960125 Z" id="形状"></path>
            </g>
        </g>
    </g>
</svg>