<?xml version="1.0" encoding="UTF-8"?>
<svg width="64px" height="64px" viewBox="0 0 64 64" version="1.1" xmlns="http://www.w3.org/2000/svg" xmlns:xlink="http://www.w3.org/1999/xlink">
    <title>形状 2</title>
    <g id="页面-1" stroke="none" stroke-width="1" fill="none" fill-rule="evenodd">
        <g id="客服管理" transform="translate(-348.000000, -395.000000)" fill="#CCCCCC" fill-rule="nonzero">
            <g id="Group-8备份-2" transform="translate(320.000000, 328.000000)">
                <g id="Group-8" transform="translate(15.000000, 54.000000)">
                    <g id="形状-2" transform="translate(13.000000, 13.000000)">
                        <path d="M34.2857143,59.4285714 L38.8571429,59.4285714 L38.8571429,64 L34.2857143,64 L34.2857143,59.4285714 Z M25.1428571,25.1428571 L25.1428571,0 L0,0 L0,25.1428571 L4.57142857,25.1428571 L4.57142857,29.7142857 L9.14285714,29.7142857 L9.14285714,25.1428571 L25.1428571,25.1428571 Z M4.57142857,20.5714286 L4.57142857,4.57142857 L20.5714286,4.57142857 L20.5714286,20.5714286 L4.57142857,20.5714286 Z M9.14285714,9.14285714 L16,9.14285714 L16,16 L9.14285714,16 L9.14285714,9.14285714 Z M38.8571429,0 L38.8571429,25.1428571 L64,25.1428571 L64,0 L38.8571429,0 Z M59.4285714,20.5714286 L43.4285714,20.5714286 L43.4285714,4.57142857 L59.4285714,4.57142857 L59.4285714,20.5714286 Z M48,9.14285714 L54.8571429,9.14285714 L54.8571429,16 L48,16 L48,9.14285714 Z M9.14285714,48 L16,48 L16,54.8571429 L9.14285714,54.8571429 L9.14285714,48 Z M0,29.7142857 L4.57142857,29.7142857 L4.57142857,34.2857143 L0,34.2857143 L0,29.7142857 Z M9.14285714,29.7142857 L13.7142857,29.7142857 L13.7142857,34.2857143 L9.14285714,34.2857143 L9.14285714,29.7142857 Z M13.7142857,38.8571429 L0,38.8571429 L0,64 L25.1428571,64 L25.1428571,38.8571429 L18.2857143,38.8571429 L18.2857143,34.2857143 L13.7142857,34.2857143 L13.7142857,38.8571429 Z M20.5714286,43.4285714 L20.5714286,59.4285714 L4.57142857,59.4285714 L4.57142857,43.4285714 L20.5714286,43.4285714 Z M29.7142857,2.28571429 L34.2857143,2.28571429 L34.2857143,9.14285714 L29.7142857,9.14285714 L29.7142857,2.28571429 Z M29.7142857,13.7142857 L34.2857143,13.7142857 L34.2857143,18.2857143 L29.7142857,18.2857143 L29.7142857,13.7142857 Z M43.4285714,29.7142857 L38.8571429,29.7142857 L34.2857143,29.7142857 L34.2857143,22.8571429 L29.7142857,22.8571429 L29.7142857,29.7142857 L18.2857143,29.7142857 L18.2857143,34.2857143 L29.7142857,34.2857143 L34.2857143,34.2857143 L38.8571429,34.2857143 L38.8571429,38.8571429 L43.4285714,38.8571429 L43.4285714,34.2857143 L43.4285714,29.7142857 Z M43.4285714,38.8571429 L48,38.8571429 L48,43.4285714 L43.4285714,43.4285714 L43.4285714,38.8571429 Z M29.7142857,38.8571429 L34.2857143,38.8571429 L34.2857143,45.7142857 L29.7142857,45.7142857 L29.7142857,38.8571429 Z M29.7142857,50.2857143 L34.2857143,50.2857143 L34.2857143,59.4285714 L29.7142857,59.4285714 L29.7142857,50.2857143 Z M38.8571429,45.7142857 L43.4285714,45.7142857 L43.4285714,59.4285714 L38.8571429,59.4285714 L38.8571429,45.7142857 Z M52.5714286,38.8571429 L64,38.8571429 L64,43.4285714 L52.5714286,43.4285714 L52.5714286,38.8571429 Z M59.4285714,29.7142857 L64,29.7142857 L64,34.2857143 L59.4285714,34.2857143 L59.4285714,29.7142857 Z M48,29.7142857 L57.1428571,29.7142857 L57.1428571,34.2857143 L48,34.2857143 L48,29.7142857 Z M48,45.7142857 L52.5714286,45.7142857 L52.5714286,50.2857143 L48,50.2857143 L48,45.7142857 Z M59.4285714,50.2857143 L57.1428571,50.2857143 L57.1428571,54.8571429 L61.7142857,54.8571429 L61.7142857,50.2857143 L64,50.2857143 L64,45.7142857 L59.4285714,45.7142857 L59.4285714,50.2857143 Z M48,54.8571429 L52.5714286,54.8571429 L52.5714286,59.4285714 L48,59.4285714 L48,54.8571429 Z M52.5714286,59.4285714 L64,59.4285714 L64,64 L52.5714286,64 L52.5714286,59.4285714 Z" id="形状"></path>
                    </g>
                </g>
            </g>
        </g>
    </g>
</svg>