<?xml version="1.0" encoding="UTF-8"?>
<svg width="16px" height="16px" viewBox="0 0 16 16" version="1.1" xmlns="http://www.w3.org/2000/svg" xmlns:xlink="http://www.w3.org/1999/xlink">
    <title>客服-fill</title>
    <g id="页面-1" stroke="none" stroke-width="1" fill="none" fill-rule="evenodd">
        <g id="客服管理" transform="translate(-336.000000, -179.000000)" fill="#000000" fill-rule="nonzero">
            <g id="Group-8" transform="translate(320.000000, 160.000000)">
                <g id="客服-fill" transform="translate(16.000000, 19.000000)">
                    <rect id="矩形" opacity="0" x="0" y="0" width="16" height="16"></rect>
                    <path d="M9.51453048,10.4955485 C8.97967411,10.4955485 8.56307744,10.4552327 8.44481773,10.4417941 C8.17067025,10.4095414 7.97177894,10.1649589 8.00403158,9.89081136 C8.0335965,9.61666388 8.27817906,9.42046028 8.55501428,9.4500252 C9.79942886,9.58709895 11.7077104,9.46883925 12.0409877,8.77540736 C12.1592474,8.52813708 12.4575844,8.42062825 12.7075424,8.54157567 C12.9575004,8.65983537 13.0623215,8.96086006 12.9413741,9.20813034 C12.4118932,10.3020326 10.6783135,10.4955485 9.51453048,10.4955485 Z M14.000336,9.99832017 C13.7235008,9.99832017 13.50042,9.77523937 13.50042,9.49840416 L13.50042,7.77557533 L12.8311775,7.5363682 C12.6322862,7.46648747 12.4979002,7.27565931 12.4979002,7.06601712 C12.4979002,4.58525112 10.4794221,2.56677305 7.99865613,2.56677305 C5.51789013,2.56677305 3.49941205,4.58525112 3.49941205,7.06601712 C3.49941205,7.22728036 3.42146816,7.3777927 3.28976984,7.47186292 L2.99949603,7.67881741 L2.99949603,9.49571645 C2.99949603,9.77255166 2.77641523,9.99563247 2.49958002,9.99563247 C2.2227448,9.99563247 1.999664,9.77255167 1.999664,9.49571645 L1.999664,7.42079625 C1.999664,7.25953302 2.07760789,7.10902067 2.2093062,7.01495045 L2.50495545,6.80262053 C2.6420292,3.89181925 5.05291447,1.56425333 7.99865611,1.56425333 C10.9121451,1.56694103 13.3042164,3.84344028 13.4896691,6.71123803 L14.1696624,6.95313287 C14.3685537,7.02301361 14.5029397,7.21384177 14.5029397,7.42348395 L14.5029397,9.49840416 C14.500252,9.77523937 14.2771712,9.99832017 14.000336,9.99832017 Z M9.99832017,12.2452545 L9.99832017,12.0947421 C10.4364186,11.7534016 10.7858223,11.422812 10.9927767,10.9578364 C10.538552,11.0304048 10.0305728,11.0035276 9.62203931,11.0035276 C9.1221233,11.0035276 8.69477575,11.0169662 8.43406686,10.9874013 C7.88577187,10.9255837 7.49067697,10.3826642 7.54980683,9.83436922 C7.61162441,9.28607423 8.10885269,8.88560389 8.65445994,8.95010919 C9.76717622,9.06836889 10.9954645,8.93935831 11.4873173,8.73240383 C11.5088191,8.27549134 11.5034437,7.79438937 11.5034437,7.42885939 C11.5034437,5.28943389 10.202587,4.02082983 8.11691586,3.97513858 C8.10616498,3.97513858 7.82395433,3.97513858 7.81320345,3.97513858 C5.72753236,4.01814211 4.47774234,5.3028725 4.47774234,7.44498572 C4.47774234,8.76734419 4.49924411,10.9255837 5.99899214,12.0974299 L5.99899214,12.2479422 C3.99932811,12.5597178 2.46732744,13.3821603 2.46732744,14.4679993 C2.46732744,14.7448345 2.69847141,15.0028557 2.97530661,15.0028557 L12.7881741,15.0028557 C13.0650093,15.0028557 13.4117291,14.7448345 13.4117291,14.4679993 C13.4144129,13.3794725 12.0006719,12.5597178 9.99832017,12.2452545 Z" id="形状"></path>
                </g>
            </g>
        </g>
    </g>
</svg>