<svg width="16" height="16" viewBox="0 0 16 16" fill="none" xmlns="http://www.w3.org/2000/svg">
<path d="M12.0625 12.4223C11.1562 13.235 10.1275 13.735 8.9765 13.9223C7.8255 14.1096 6.69783 13.969 5.5935 13.5003C4.48917 13.0003 3.61683 12.2606 2.9765 11.2813C2.33617 10.302 2.01067 9.20813 2 7.99979H3C3.01033 9.05179 3.29933 9.99446 3.867 10.8278C4.43467 11.6611 5.20817 12.2705 6.1875 12.6558C7.16683 13.0308 8.14867 13.1038 9.133 12.8748C10.1173 12.6458 10.9688 12.1458 11.6875 11.3748H10.2345C10.0885 11.3748 9.96867 11.328 9.875 11.2343C9.78133 11.1406 9.7345 11.0235 9.7345 10.8828C9.7345 10.7421 9.78133 10.625 9.875 10.5313C9.96867 10.4376 10.0885 10.3855 10.2345 10.3748H12.5625C12.6978 10.3851 12.8125 10.4373 12.9065 10.5313C13.0005 10.6253 13.0527 10.74 13.063 10.8753V13.2033C13.0527 13.3493 13.0005 13.4691 12.9065 13.5628C12.8125 13.6565 12.6953 13.7033 12.555 13.7033C12.4147 13.7033 12.2975 13.6565 12.2035 13.5628C12.1095 13.4691 12.0627 13.3493 12.063 13.2033V12.4218L12.0625 12.4223ZM4.3125 4.62529H5.7655C5.9115 4.62529 6.03133 4.67213 6.125 4.76579C6.21867 4.85946 6.2655 4.97663 6.2655 5.11729C6.2655 5.25796 6.21867 5.37513 6.125 5.46879C6.03133 5.56246 5.9115 5.61463 5.7655 5.62529H3.4375C3.30217 5.61496 3.1875 5.56279 3.0935 5.46879C2.9995 5.37479 2.94733 5.26012 2.937 5.12479V2.79679C2.94733 2.65079 2.9995 2.53096 3.0935 2.43729C3.1875 2.34363 3.30467 2.29679 3.445 2.29679C3.58533 2.29679 3.7025 2.34363 3.7965 2.43729C3.8905 2.53096 3.93733 2.65079 3.937 2.79679V3.57829C4.84333 2.76563 5.872 2.26563 7.023 2.07829C8.174 1.89096 9.30683 2.03163 10.4215 2.50029C11.5258 3.00029 12.3957 3.73996 13.031 4.71929C13.6663 5.69863 13.9893 6.79246 14 8.00079H13C12.9897 6.94879 12.7007 6.00613 12.133 5.17279C11.5653 4.33946 10.7918 3.73013 9.8125 3.34479C8.83317 2.96979 7.85133 2.89679 6.867 3.12579C5.88267 3.35479 5.03117 3.85479 4.3125 4.62579V4.62529Z" fill="#08080A" fill-opacity="0.96"/>
</svg>
