<svg width="16" height="16" viewBox="0 0 16 16" fill="none" xmlns="http://www.w3.org/2000/svg">
<path d="M8.00003 14.144C9.7387 14.1014 11.1867 13.5014 12.344 12.344C13.5014 11.1867 14.1014 9.7387 14.144 8.00003C14.1014 6.26136 13.5014 4.81336 12.344 3.65603C11.1867 2.4987 9.7387 1.8987 8.00003 1.85603C6.26136 1.8987 4.81336 2.4987 3.65603 3.65603C2.4987 4.81336 1.8987 6.26136 1.85603 8.00003C1.8987 9.7387 2.4987 11.1867 3.65603 12.344C4.81336 13.5014 6.26136 14.1014 8.00003 14.144ZM8.00003 15.168C5.97336 15.1147 4.28536 14.4134 2.93603 13.064C1.5867 11.7147 0.885359 10.0267 0.832031 8.00003C0.885359 5.97336 1.5867 4.28536 2.93603 2.93603C4.28536 1.5867 5.97336 0.885359 8.00003 0.832031C10.0267 0.885359 11.7147 1.5867 13.064 2.93603C14.4134 4.28536 15.1147 5.97336 15.168 8.00003C15.1147 10.0267 14.4134 11.7147 13.064 13.064C11.7147 14.4134 10.0267 15.1147 8.00003 15.168ZM2.88003 8.00003C2.91203 6.54936 3.4107 5.34136 4.37603 4.37603C5.34136 3.4107 6.54936 2.91203 8.00003 2.88003C9.4507 2.91203 10.6587 3.4107 11.624 4.37603C12.5894 5.34136 13.088 6.54936 13.12 8.00003C13.12 8.14936 13.072 8.27203 12.976 8.36803C12.88 8.46403 12.7574 8.51203 12.608 8.51203C12.4587 8.51203 12.336 8.46403 12.24 8.36803C12.144 8.27203 12.096 8.14936 12.096 8.00003C12.064 6.83736 11.664 5.87203 10.896 5.10403C10.128 4.33603 9.1627 3.93603 8.00003 3.90403C6.83736 3.93603 5.87203 4.33603 5.10403 5.10403C4.33603 5.87203 3.93603 6.83736 3.90403 8.00003C3.90403 8.14936 3.85603 8.27203 3.76003 8.36803C3.66403 8.46403 3.54136 8.51203 3.39203 8.51203C3.2427 8.51203 3.12003 8.46403 3.02403 8.36803C2.92803 8.27203 2.88003 8.14936 2.88003 8.00003ZM8.92803 9.85603C9.2267 10.0907 9.41603 10.3867 9.49603 10.744C9.57603 11.1014 9.52803 11.448 9.35203 11.784C9.17603 12.12 8.91736 12.3574 8.57603 12.496C8.2347 12.6347 7.8827 12.6427 7.52003 12.52C7.15736 12.3974 6.88003 12.184 6.68803 11.88C6.49603 11.576 6.42936 11.2347 6.48803 10.856C6.5467 10.4774 6.71203 10.168 6.98403 9.92803C7.25603 9.68803 7.58403 9.55736 7.96803 9.53603L8.94403 6.52803C9.00803 6.3467 9.13336 6.2347 9.32003 6.19203C9.5067 6.14936 9.6667 6.20003 9.80003 6.34403C9.93336 6.48803 9.96803 6.65603 9.90403 6.84803L8.92803 9.85603ZM7.84003 11.552C7.9787 11.5947 8.10936 11.5867 8.23203 11.528C8.3547 11.4694 8.43736 11.3707 8.48003 11.232C8.5227 11.0934 8.5147 10.9627 8.45603 10.84C8.39736 10.7174 8.2987 10.6347 8.16003 10.592C8.02136 10.5494 7.8907 10.5574 7.76803 10.616C7.64536 10.6747 7.5627 10.7734 7.52003 10.912C7.47736 11.0507 7.48536 11.1814 7.54403 11.304C7.6027 11.4267 7.70136 11.5094 7.84003 11.552Z" fill="#555555"/>
</svg>
