<?xml version="1.0" encoding="UTF-8"?>
<svg width="24px" height="24px" viewBox="0 0 24 24" version="1.1" xmlns="http://www.w3.org/2000/svg" xmlns:xlink="http://www.w3.org/1999/xlink">
    <title>文本</title>
    <g id="页面-1" stroke="none" stroke-width="1" fill="none" fill-rule="evenodd">
        <g id="添加知识2" transform="translate(-919.000000, -874.000000)" fill="#000000" fill-rule="nonzero">
            <g id="编组-2" transform="translate(297.000000, 136.000000)">
                <g id="notification_basic" transform="translate(567.000000, 644.000000)">
                    <g id="文本" transform="translate(55.000000, 94.000000)">
                        <rect id="矩形" opacity="0" x="0" y="0" width="24" height="24"></rect>
                        <path d="M21.1875,1.5 L2.8125,1.5 C2.08762627,1.5 1.5,2.08762627 1.5,2.8125 L1.5,21.1875 C1.5,21.9123737 2.08762627,22.5 2.8125,22.5 L21.1875,22.5 C21.9123737,22.5 22.5,21.9123737 22.5,21.1875 L22.5,2.8125 C22.5,2.08762627 21.9123737,1.5 21.1875,1.5 Z M20.75,3.24999999 L20.75,20.75 L3.24999999,20.75 L3.24999999,3.24999999 L20.75,3.24999999 Z M7.18749999,6.75 L8.0625,6.75 C8.35416666,6.75 8.49999999,6.89583333 8.49999999,7.18749999 L8.49999999,9.81249999 C8.49999999,10.1041667 8.35416666,10.25 8.0625,10.25 L7.18749999,10.25 C6.89583333,10.25 6.75,10.1041667 6.75,9.81249999 L6.75,7.18749999 C6.75,6.89583333 6.89583333,6.75 7.18749999,6.75 Z M7.18749999,6.75 L16.8125,6.75 C17.1041667,6.75 17.25,6.89583333 17.25,7.18749999 L17.25,8.0625 C17.25,8.35416666 17.1041667,8.49999999 16.8125,8.49999999 L7.18749999,8.49999999 C6.89583333,8.49999999 6.75,8.35416666 6.75,8.0625 L6.75,7.18749999 C6.75,6.89583333 6.89583333,6.75 7.18749999,6.75 L7.18749999,6.75 Z M9.81249999,15.5 L14.1875,15.5 C14.4791667,15.5 14.625,15.6458333 14.625,15.9375 L14.625,16.8125 C14.625,17.1041667 14.4791667,17.25 14.1875,17.25 L9.81249999,17.25 C9.52083333,17.25 9.375,17.1041667 9.375,16.8125 L9.375,15.9375 C9.375,15.6458333 9.52083333,15.5 9.81249999,15.5 L9.81249999,15.5 Z M15.9375,6.75 L16.8125,6.75 C17.1041667,6.75 17.25,6.89583333 17.25,7.18749999 L17.25,9.81249999 C17.25,10.1041667 17.1041667,10.25 16.8125,10.25 L15.9375,10.25 C15.6458333,10.25 15.5,10.1041667 15.5,9.81249999 L15.5,7.18749999 C15.5,6.89583333 15.6458333,6.75 15.9375,6.75 Z M11.5625,6.75 L12.4375,6.75 C12.7291667,6.75 12.875,6.89583333 12.875,7.18749999 L12.875,16.8125 C12.875,17.1041667 12.7291667,17.25 12.4375,17.25 L11.5625,17.25 C11.2708333,17.25 11.125,17.1041667 11.125,16.8125 L11.125,7.18749999 C11.125,6.89583333 11.2708333,6.75 11.5625,6.75 L11.5625,6.75 Z" id="形状"></path>
                    </g>
                </g>
            </g>
        </g>
    </g>
</svg>