<?xml version="1.0" encoding="UTF-8"?>
<svg width="24px" height="24px" viewBox="0 0 24 24" version="1.1" xmlns="http://www.w3.org/2000/svg" xmlns:xlink="http://www.w3.org/1999/xlink">
    <title>播放</title>
    <g id="页面-1" stroke="none" stroke-width="1" fill="none" fill-rule="evenodd">
        <g id="添加知识2" transform="translate(-1107.000000, -876.000000)" fill-rule="nonzero">
            <g id="编组-2" transform="translate(297.000000, 136.000000)">
                <g id="notification_basic" transform="translate(567.000000, 644.000000)">
                    <g id="播放" transform="translate(243.000000, 96.000000)">
                        <rect id="矩形" fill="#000000" opacity="0" x="0" y="0" width="24" height="24"></rect>
                        <path d="M12,1.5 C17.7989899,1.5 22.5,6.20101013 22.5,12 C22.5,17.7989899 17.7989899,22.5 12,22.5 C6.20101013,22.5 1.5,17.7989899 1.5,12 C1.5,6.20101013 6.20101013,1.5 12,1.5 Z M12,3.6 C8.99896901,3.6 6.22590201,5.2010309 4.7253865,7.79999996 C3.224871,10.398969 3.224871,13.601031 4.7253865,16.2 C6.22590201,18.7989691 8.99896901,20.4 12,20.4 C16.6391918,20.4 20.3999999,16.6391918 20.3999999,12 C20.3999999,7.36080815 16.6391918,3.6 12,3.6 Z M10.845,8.34 L15.576,11.562 L15.576,12.237 L10.845,15.459 L10.071,14.895 L10.071,8.9055 L10.845,8.34 Z" id="形状" fill="#171717"></path>
                    </g>
                </g>
            </g>
        </g>
    </g>
</svg>