<?xml version="1.0" encoding="UTF-8"?>
<svg width="16px" height="16px" viewBox="0 0 16 16" version="1.1" xmlns="http://www.w3.org/2000/svg" xmlns:xlink="http://www.w3.org/1999/xlink">
    <title>会员</title>
    <g id="页面-1" stroke="none" stroke-width="1" fill="none" fill-rule="evenodd">
        <g id="客服管理" transform="translate(-335.000000, -347.000000)" fill="#000000" fill-rule="nonzero">
            <g id="Group-8备份-2" transform="translate(320.000000, 328.000000)">
                <g id="会员" transform="translate(15.000000, 19.000000)">
                    <rect id="矩形" opacity="0" x="0" y="0" width="16" height="16"></rect>
                    <path d="M14.6578125,6.0328125 L11.9234375,2.6265625 C11.65,2.278125 11.203125,2.0546875 10.7546875,2.0546875 L5.234375,2.0546875 C4.7875,2.0546875 4.3640625,2.253125 4.065625,2.6265625 L1.33125,6.0328125 C0.859375,6.6046875 0.9078125,7.45 1.40625,7.9984375 L6.9515625,13.8671875 L7.0265625,13.9421875 C7.3,14.190625 7.6734375,14.340625 8.0453125,14.340625 L8.0953125,14.340625 C8.49375,14.315625 8.865625,14.1671875 9.1390625,13.86875 L14.559375,8.025 C15.08125,7.45 15.10625,6.6046875 14.6578125,6.0328125 L14.6578125,6.0328125 Z M11.3765625,7.7 L8.790625,10.509375 C8.3921875,10.9078125 7.771875,10.9328125 7.3734375,10.559375 L7.3234375,10.509375 L4.6375,7.675 C4.4640625,7.4765625 4.4640625,7.153125 4.6625,6.978125 C4.8859375,6.7796875 5.184375,6.8046875 5.3828125,7.003125 L7.90625,9.66875 C7.98125,9.746875 8.1046875,9.746875 8.1796875,9.66875 L10.6296875,7.0546875 C10.828125,6.85625 11.1265625,6.83125 11.35,7.0046875 C11.55,7.1765625 11.55,7.5 11.3765625,7.7 Z" id="形状"></path>
                </g>
            </g>
        </g>
    </g>
</svg>