<?xml version="1.0" encoding="UTF-8"?>
<svg width="16px" height="16px" viewBox="0 0 16 16" version="1.1" xmlns="http://www.w3.org/2000/svg" xmlns:xlink="http://www.w3.org/1999/xlink">
    <title>小程序</title>
    <g id="页面-1" stroke="none" stroke-width="1" fill="none" fill-rule="evenodd">
        <g id="编辑知识" transform="translate(-913.000000, -852.000000)" fill-rule="nonzero">
            <g id="编组-8" transform="translate(895.000000, 576.000000)">
                <g id="小程序" transform="translate(18.000000, 276.000000)">
                    <rect id="矩形" fill="#000000" opacity="0" x="0" y="0" width="15.9970006" height="15.9970006"></rect>
                    <path d="M11.5708305,0.585890146 C14.0133725,0.585890146 16,2.39155158 16,4.62413298 C16,5.31800287 15.7960382,5.99687559 15.4281072,6.60876086 C14.8712116,7.50259326 13.9803787,8.16446916 12.9025808,8.47941011 C12.6739493,8.55107814 12.4362701,8.5897936 12.1967131,8.59438855 C11.9750165,8.59842081 11.7610325,8.5130256 11.6030255,8.35746394 C11.4450185,8.20190228 11.3562964,7.98927611 11.3568706,7.76754359 C11.3568706,7.30263076 11.7268012,6.94169843 12.1967131,6.94169843 C12.2297069,6.94169843 12.298694,6.94169843 12.3826782,6.90970443 C13.1065425,6.70974192 13.6784353,6.29781916 13.9983753,5.74992189 C14.2163344,5.40398675 14.3183153,5.02005874 14.3183153,4.62413298 C14.3183153,3.31437855 13.0885459,2.2415797 11.5888271,2.2415797 C11.0715579,2.2423487 10.5627613,2.37298567 10.1091045,2.62150847 C9.31525339,3.06742486 8.8453415,3.81128538 8.8453415,4.62413298 L8.8453415,11.5588327 C8.8453415,12.9645691 8.05249016,14.2563269 6.73873649,14.9851903 C6.03286884,15.3821159 5.23901768,15.5830782 4.43116916,15.5830782 C1.98962694,15.5830782 0.00199962507,13.7764169 0.00199962507,11.5438355 C0.00199962507,10.8509654 0.206961195,10.1710929 0.573892395,9.55920765 C1.13078798,8.66537524 2.02262076,8.00349934 3.09941886,7.68955821 C3.40136224,7.60657377 3.605324,7.57457977 3.80528651,7.57457977 C4.27819784,7.57457977 4.64612885,7.93951134 4.64612885,8.40042492 C4.64670305,8.62215745 4.55798095,8.83478362 4.39997394,8.99034528 C4.24196694,9.14590693 4.02798292,9.23130214 3.80628632,9.22726989 C3.7722927,9.22726989 3.70330563,9.22726989 3.62032119,9.25926389 C2.8954571,9.47422358 2.32456414,9.88914579 2.00462413,10.4180466 C1.78566519,10.7649816 1.68468412,11.1479098 1.68468412,11.5448353 C1.68468412,12.8545898 2.91445354,13.9263888 4.42816972,13.9263888 C4.94569109,13.9260938 5.45484665,13.7957967 5.90889208,13.5474599 C6.70174342,13.1005436 7.17165531,12.3566831 7.17165531,11.5448353 L7.17165531,4.62713241 C7.17165531,3.22139599 7.96450666,1.93063801 9.27826033,1.20077485 C9.97227557,0.791051815 10.7649304,0.578455762 11.5708305,0.585890146 Z" id="路径" fill="#6B6DEF"></path>
                </g>
            </g>
        </g>
    </g>
</svg>