<?xml version="1.0" encoding="UTF-8"?>
<svg width="18px" height="18px" viewBox="0 0 18 18" version="1.1" xmlns="http://www.w3.org/2000/svg" xmlns:xlink="http://www.w3.org/1999/xlink">
    <title>上升箭头</title>
    <g id="Page-1" stroke="none" stroke-width="1" fill="none" fill-rule="evenodd">
        <g id="任务中心---周" transform="translate(-1830.000000, -368.000000)" fill-rule="nonzero">
            <g id="Group-14" transform="translate(1471.000000, 347.000000)">
                <g id="上升箭头" transform="translate(359.000000, 21.000000)">
                    <rect id="Rectangle" fill="#000000" opacity="0" x="0" y="0" width="18" height="18"></rect>
                    <path d="M3.2625,1.695375 L3.2625,14.75325 L16.3125,14.75325 L16.3125,16.32825 L1.6875,16.32825 L1.6875,1.695375 L3.2625,1.695375 Z M16.3125,3.378375 L16.3125,3.508875 L12.112875,8.79075 L12.12525,8.802 L11.453625,9.622125 L11.300625,9.813375 L11.29725,9.811125 L11.1285,10.018125 L8.93025,8.145 L5.434875,12.526875 L4.22775,11.52675 L8.71875,5.8995 L10.920375,7.776 L12.970125,5.196375 L11.3355,3.8475 L11.707875,3.378375 L16.3125,3.378375 Z" id="Shape" fill="#FF6F00"></path>
                </g>
            </g>
        </g>
    </g>
</svg>