<svg width="400" height="264" viewBox="0 0 400 264" fill="none" xmlns="http://www.w3.org/2000/svg">
<rect width="400" height="264" fill="white" fill-opacity="0.01"/>
<mask id="mask0_412_37541" style="mask-type:alpha" maskUnits="userSpaceOnUse" x="0" y="0" width="400" height="264">
<rect width="400" height="264" fill="white"/>
</mask>
<g mask="url(#mask0_412_37541)">
<path fill-rule="evenodd" clip-rule="evenodd" d="M199.696 146.49C403.303 146.49 568.359 311.55 568.359 515.168C568.359 718.785 403.303 883.84 199.696 883.84C-3.91154 883.84 -168.968 718.781 -168.968 515.168C-168.968 311.555 -3.91246 146.49 199.696 146.49Z" fill="url(#paint0_linear_412_37541)"/>
<path fill-rule="evenodd" clip-rule="evenodd" d="M70.6914 173.091C71.3023 173.091 71.7974 173.586 71.7974 174.197V182.365C71.7974 182.976 71.3023 183.471 70.6914 183.471C70.0806 183.471 69.5854 182.976 69.5854 182.365V174.197C69.5854 173.586 70.0806 173.091 70.6914 173.091Z" fill="#B3B3B3"/>
<path fill-rule="evenodd" clip-rule="evenodd" d="M70.6288 151.443C75.3892 151.443 78.4938 158.544 79.2464 164.574C79.9924 170.538 78.1533 175.493 70.6288 175.493C62.851 175.493 61.3141 170.547 62.0113 164.574C62.7639 158.094 65.8685 151.443 70.6288 151.443Z" fill="url(#paint1_linear_412_37541)"/>
<path fill-rule="evenodd" clip-rule="evenodd" d="M307.31 220.31H307.742C308.353 220.31 308.848 220.805 308.848 221.416V231.663C308.848 232.274 308.353 232.769 307.742 232.769H307.31C306.699 232.769 306.204 232.274 306.204 231.663V221.416C306.204 220.805 306.699 220.31 307.31 220.31Z" fill="#B3B3B3"/>
<path fill-rule="evenodd" clip-rule="evenodd" d="M307.713 222.292C298.755 222.292 296.986 217.994 297.786 212.803C298.035 211.14 298.547 209.527 299.302 208.025C298.911 206.653 298.911 205.198 299.302 203.826C300.633 198.145 304.859 194.189 307.761 194.189C310.784 194.189 314.889 198.383 316.22 203.826C316.629 205.221 316.575 206.711 316.065 208.073C316.837 209.557 317.369 211.153 317.641 212.803C318.499 217.984 316.381 222.292 307.713 222.292Z" fill="url(#paint2_linear_412_37541)"/>
<path fill-rule="evenodd" clip-rule="evenodd" d="M115.139 141.306C114.875 140.124 113.932 139.213 112.742 138.99C111.48 138.697 111.475 138.383 112.727 138.047C113.908 137.784 114.82 136.841 115.043 135.651C115.336 134.389 115.65 134.383 115.986 135.635C116.249 136.817 117.192 137.728 118.382 137.951C119.644 138.245 119.65 138.559 118.398 138.894C117.216 139.157 116.305 140.1 116.081 141.29C115.788 142.552 115.474 142.558 115.139 141.306Z" fill="#CCCCCC"/>
<path fill-rule="evenodd" clip-rule="evenodd" d="M114.928 140.923C114.664 139.741 113.722 138.829 112.531 138.606C111.269 138.313 111.264 137.999 112.515 137.664C113.697 137.401 114.609 136.458 114.832 135.268C115.125 134.006 115.439 134.001 115.775 135.252C116.038 136.434 116.981 137.345 118.171 137.569C119.433 137.861 119.438 138.175 118.187 138.511C117.005 138.774 116.094 139.717 115.871 140.907C115.577 142.168 115.263 142.173 114.928 140.923Z" fill="url(#paint3_radial_412_37541)"/>
<path fill-rule="evenodd" clip-rule="evenodd" d="M333.111 153.288C332.847 152.106 331.905 151.195 330.715 150.971C329.453 150.679 329.448 150.365 330.699 150.029C331.881 149.765 332.792 148.823 333.016 147.632C333.308 146.37 333.622 146.365 333.958 147.616C334.222 148.798 335.164 149.71 336.355 149.933C337.617 150.226 337.622 150.54 336.371 150.875C335.189 151.139 334.277 152.081 334.054 153.272C333.761 154.534 333.446 154.539 333.111 153.288Z" fill="#CCCCCC"/>
<path fill-rule="evenodd" clip-rule="evenodd" d="M332.9 152.904C332.637 151.722 331.694 150.811 330.504 150.588C329.242 150.295 329.236 149.981 330.488 149.645C331.67 149.382 332.581 148.439 332.804 147.249C333.097 145.987 333.412 145.982 333.747 147.233C334.011 148.415 334.953 149.327 336.143 149.55C337.405 149.842 337.411 150.157 336.16 150.492C334.978 150.756 334.066 151.698 333.843 152.889C333.55 154.15 333.236 154.155 332.9 152.904Z" fill="url(#paint4_radial_412_37541)"/>
<path fill-rule="evenodd" clip-rule="evenodd" d="M320.378 137.775C320.199 136.976 319.562 136.36 318.757 136.208C317.904 136.011 317.9 135.798 318.746 135.571C319.546 135.393 320.162 134.755 320.313 133.95C320.511 133.097 320.724 133.093 320.951 133.94C321.129 134.739 321.766 135.356 322.571 135.507C323.425 135.705 323.428 135.917 322.582 136.144C321.783 136.322 321.166 136.96 321.015 137.765C320.817 138.619 320.604 138.622 320.378 137.775Z" fill="url(#paint5_radial_412_37541)"/>
<path fill-rule="evenodd" clip-rule="evenodd" d="M152.05 50.4063C149.645 53.351 149.624 57.5753 151.998 60.5443C154.373 63.5134 158.498 64.4208 161.9 62.722C159.342 64.1591 156.206 64.0942 153.711 62.5527C151.215 61.0112 149.753 58.2361 149.894 55.3061C150.034 52.376 151.754 49.7532 154.385 48.457C153.49 48.9522 152.697 49.6138 152.05 50.4063Z" fill="#CCCCCC"/>
<circle cx="158.299" cy="55.5059" r="8.06452" fill="url(#paint6_linear_412_37541)"/>
<path fill-rule="evenodd" clip-rule="evenodd" d="M144.134 47.7296C143.047 49.7661 148.662 54.8817 156.675 59.1582C163.648 62.8776 170.137 64.7343 172.42 63.8094C170.488 65.0868 163.69 63.2379 156.355 59.3255C148.342 55.0513 142.727 49.9356 143.814 47.8969C143.978 47.6166 144.237 47.4042 144.544 47.2979C144.373 47.405 144.232 47.5535 144.134 47.7296V47.7296Z" fill="#CCCCCC"/>
<path fill-rule="evenodd" clip-rule="evenodd" d="M156.675 59.1529C148.662 54.8787 143.047 49.763 144.134 47.7243C145.22 45.6856 152.596 47.5013 160.609 51.7755C168.622 56.0497 174.236 61.1653 173.15 63.2041C172.064 65.2428 164.687 63.4266 156.675 59.1529ZM171.253 61.7944C172.093 60.2183 167.203 55.9686 160.331 52.3013C153.46 48.634 147.204 46.9405 146.364 48.5165C145.523 50.0925 150.414 54.3423 157.285 58.0096C164.157 61.6769 170.412 63.3704 171.253 61.7944V61.7944ZM154.366 48.4266L153.087 49.0958L153.102 49.9027L166.299 56.4386L166.421 54.3377L154.366 48.4266Z" fill="url(#paint7_linear_412_37541)"/>
<path d="M241.264 68.8603C241.264 68.8603 270.771 70.8196 266.128 58.7805C261.486 46.7413 255.653 51.4642 254.089 54.569C252.526 57.6738 266.13 67.97 272.589 59.4826C280.981 48.4548 313.115 46.6234 313.115 46.6234" stroke="url(#paint8_linear_412_37541)" stroke-dasharray="6"/>
<path fill-rule="evenodd" clip-rule="evenodd" d="M366.35 38.347L323.658 44.2988L318.782 41.6108L366.35 38.347Z" fill="white"/>
<path fill-rule="evenodd" clip-rule="evenodd" d="M366.35 38.347L323.658 44.2988L318.782 41.6108L366.35 38.347Z" fill="url(#paint9_linear_412_37541)"/>
<path fill-rule="evenodd" clip-rule="evenodd" d="M318.781 41.611L316.746 34.9466L365.705 38.2531" fill="url(#paint10_linear_412_37541)"/>
<path fill-rule="evenodd" clip-rule="evenodd" d="M319.873 47.6164L319.819 57.5855L365.677 39.0451" fill="url(#paint11_linear_412_37541)"/>
<path fill-rule="evenodd" clip-rule="evenodd" d="M323.378 44.0522L319.386 47.9343L364.965 38.8034" fill="url(#paint12_linear_412_37541)"/>
<path fill-rule="evenodd" clip-rule="evenodd" d="M323.378 44.0522L319.386 47.9343L364.965 38.8034" fill="white"/>
</g>
<rect opacity="0.01" x="141" y="73" width="118" height="118" fill="black"/>
<path fill-rule="evenodd" clip-rule="evenodd" d="M199.983 73.0342C167.427 73.0342 141.035 85.3952 141 100.648V163.351C141 178.616 167.404 191 199.983 191C232.561 191 258.965 178.616 258.965 163.351V100.648C258.931 85.3952 232.538 73.0342 199.983 73.0342Z" fill="url(#paint13_linear_412_37541)"/>
<path fill-rule="evenodd" clip-rule="evenodd" d="M160.354 176.22C157.808 176.22 155.746 174.158 155.746 171.612C155.746 169.066 157.808 167.004 160.354 167.004C162.9 167.004 164.962 169.066 164.962 171.612C164.962 174.158 162.9 176.22 160.354 176.22Z" fill="white"/>
<path fill-rule="evenodd" clip-rule="evenodd" d="M251.593 154.481C249.531 155.806 247.273 157.039 244.819 158.191C232.723 163.859 216.791 166.981 199.983 166.981C183.175 166.981 167.243 163.859 155.147 158.191C152.693 157.039 150.435 155.806 148.373 154.481V145.357C158.43 153.859 177.772 159.608 199.983 159.608C222.194 159.608 241.536 153.859 251.593 145.357V154.481Z" fill="white"/>
<path fill-rule="evenodd" clip-rule="evenodd" d="M155.746 140.277C155.746 137.731 157.808 135.669 160.354 135.669C162.9 135.669 164.962 137.731 164.962 140.277C164.962 142.823 162.9 144.885 160.354 144.885C157.808 144.885 155.746 142.823 155.746 140.277Z" fill="white"/>
<path fill-rule="evenodd" clip-rule="evenodd" d="M251.593 123.204C249.531 124.529 247.273 125.761 244.819 126.913C232.723 132.581 216.791 135.703 199.983 135.703C183.175 135.703 167.243 132.581 155.147 126.913C152.693 125.761 150.435 124.529 148.373 123.204V114.08C158.43 122.582 177.772 128.33 199.983 128.33C222.194 128.33 241.536 122.582 251.593 114.08V123.204V123.204Z" fill="white"/>
<defs>
<linearGradient id="paint0_linear_412_37541" x1="229.563" y1="206.213" x2="229.563" y2="146.487" gradientUnits="userSpaceOnUse">
<stop stop-color="#E6E6E6" stop-opacity="0.01"/>
<stop offset="1" stop-color="#E6E6E6"/>
</linearGradient>
<linearGradient id="paint1_linear_412_37541" x1="68.2577" y1="184.283" x2="89.2197" y2="173.135" gradientUnits="userSpaceOnUse">
<stop stop-color="#D7D7D7"/>
<stop offset="0.485" stop-color="#FAFAFA"/>
<stop offset="1" stop-color="#FAFAFA"/>
</linearGradient>
<linearGradient id="paint2_linear_412_37541" x1="304.877" y1="232.389" x2="329.062" y2="219.889" gradientUnits="userSpaceOnUse">
<stop stop-color="#CCCCCC"/>
<stop offset="1" stop-color="#FAFAFA"/>
</linearGradient>
<radialGradient id="paint3_radial_412_37541" cx="0" cy="0" r="1" gradientUnits="userSpaceOnUse" gradientTransform="translate(115.349 138.088) scale(3.7659 3.76521)">
<stop stop-color="#FAFAFA"/>
</radialGradient>
<radialGradient id="paint4_radial_412_37541" cx="0" cy="0" r="1" gradientUnits="userSpaceOnUse" gradientTransform="translate(333.321 150.069) scale(3.7659 3.76532)">
<stop stop-color="#FAFAFA"/>
</radialGradient>
<radialGradient id="paint5_radial_412_37541" cx="0" cy="0" r="1" gradientUnits="userSpaceOnUse" gradientTransform="translate(320.67 135.863) scale(2.54885 2.54908)">
<stop stop-color="#FAFAFA"/>
</radialGradient>
<linearGradient id="paint6_linear_412_37541" x1="158.299" y1="71.635" x2="174.428" y2="55.5059" gradientUnits="userSpaceOnUse">
<stop stop-color="#CCCCCC"/>
<stop offset="1" stop-color="white" stop-opacity="0.702"/>
</linearGradient>
<linearGradient id="paint7_linear_412_37541" x1="164.709" y1="69.0722" x2="171.785" y2="48.445" gradientUnits="userSpaceOnUse">
<stop stop-color="#CCCCCC"/>
<stop offset="0.495" stop-color="#CCCCCC" stop-opacity="0.702"/>
<stop offset="0.498" stop-color="#CCCCCC"/>
<stop offset="1" stop-color="white" stop-opacity="0.302"/>
</linearGradient>
<linearGradient id="paint8_linear_412_37541" x1="240.786" y1="91.7611" x2="294.537" y2="104.45" gradientUnits="userSpaceOnUse">
<stop stop-color="#CCCCCC"/>
<stop offset="1" stop-color="#F0F0F0"/>
</linearGradient>
<linearGradient id="paint9_linear_412_37541" x1="318.483" y1="18.4663" x2="314.914" y2="56.6709" gradientUnits="userSpaceOnUse">
<stop offset="0.4" stop-color="#E6E6E6" stop-opacity="0.4"/>
<stop offset="0.443" stop-color="white"/>
<stop offset="0.6" stop-color="#CCCCCC"/>
</linearGradient>
<linearGradient id="paint10_linear_412_37541" x1="331.893" y1="62.436" x2="365.001" y2="42.595" gradientUnits="userSpaceOnUse">
<stop stop-color="#E6E6E6"/>
<stop offset="0.761" stop-color="white"/>
<stop offset="1" stop-color="#F0F0F0"/>
</linearGradient>
<linearGradient id="paint11_linear_412_37541" x1="317.084" y1="75.7518" x2="363.012" y2="76.3905" gradientUnits="userSpaceOnUse">
<stop stop-color="#CCCCCC"/>
<stop offset="0.761" stop-color="white"/>
<stop offset="1" stop-color="#F0F0F0"/>
</linearGradient>
<linearGradient id="paint12_linear_412_37541" x1="317.121" y1="24.6918" x2="323.812" y2="68.6557" gradientUnits="userSpaceOnUse">
<stop offset="0.4" stop-color="#E6E6E6" stop-opacity="0.4"/>
<stop offset="0.443" stop-color="white"/>
<stop offset="0.6" stop-color="#CCCCCC"/>
</linearGradient>
<linearGradient id="paint13_linear_412_37541" x1="301.545" y1="148.42" x2="216.372" y2="30.4552" gradientUnits="userSpaceOnUse">
<stop stop-color="#B5B5B5"/>
<stop offset="1" stop-color="#F1F1F1"/>
</linearGradient>
</defs>
</svg>
