<svg width="16" height="16" viewBox="0 0 16 16" fill="none" xmlns="http://www.w3.org/2000/svg">
<path d="M8 1C9.97933 1.052 11.6278 1.73683 12.9455 3.0545C14.2632 4.37217 14.948 6.02067 15 8C14.948 9.97933 14.2632 11.6278 12.9455 12.9455C11.6278 14.2632 9.97933 14.948 8 15C6.02067 14.948 4.37217 14.2632 3.0545 12.9455C1.73683 11.6278 1.052 9.97933 1 8C1.052 6.02067 1.73683 4.37217 3.0545 3.0545C4.37217 1.73683 6.02067 1.052 8 1V1ZM8 7.1565L6.375 5.5315C6.25 5.4065 6.10683 5.344 5.9455 5.344C5.78417 5.344 5.6435 5.40383 5.5235 5.5235C5.4035 5.64317 5.34367 5.78383 5.344 5.9455C5.34433 6.10717 5.40683 6.25033 5.5315 6.375L7.1565 8L5.5315 9.625C5.4065 9.75 5.344 9.89317 5.344 10.0545C5.344 10.2158 5.40383 10.3565 5.5235 10.4765C5.64317 10.5965 5.78383 10.6563 5.9455 10.656C6.10717 10.6557 6.25033 10.5932 6.375 10.4685L8 8.8435L9.625 10.4685C9.79167 10.6248 9.98433 10.6743 10.203 10.617C10.4217 10.5597 10.5597 10.4217 10.617 10.203C10.6743 9.98433 10.6248 9.79167 10.4685 9.625L8.8435 8L10.4685 6.375C10.5935 6.25 10.656 6.10683 10.656 5.9455C10.656 5.78417 10.5962 5.6435 10.4765 5.5235C10.3568 5.4035 10.2162 5.34367 10.0545 5.344C9.89283 5.34433 9.74967 5.40683 9.625 5.5315L8 7.1565Z" fill="#BFBFBF"/>
</svg>
