<svg width="16" height="16" viewBox="0 0 16 16" fill="none" xmlns="http://www.w3.org/2000/svg">
<rect width="16" height="16" rx="2" fill="#1773FA"/>
<path fill-rule="evenodd" clip-rule="evenodd" d="M11.1101 6.61813C10.5628 5.99085 9.65818 5.81785 8.91807 6.19893L8.37007 5.57093C8.32931 5.52407 8.28729 5.47832 8.24407 5.43373C9.48444 4.65127 11.118 4.95445 11.995 6.12989C12.872 7.30532 12.6974 8.95757 11.5941 9.92373C10.4266 10.9425 8.65476 10.8235 7.63407 9.65773L6.23967 8.11613C6.11468 7.98447 6.07088 7.79541 6.12523 7.6222C6.17959 7.44899 6.32355 7.31885 6.50135 7.2822C6.67915 7.24554 6.86284 7.30814 6.98127 7.44573L8.37807 8.99013L8.38127 8.99333L8.38407 8.99693C9.04095 9.7497 10.1837 9.82742 10.9365 9.17053C11.6892 8.51365 11.767 7.3709 11.1101 6.61813ZM4.61166 6.44573C3.92071 7.04676 3.78797 8.06936 4.30257 8.82687C4.81717 9.58439 5.81673 9.83779 6.63006 9.41693L7.17846 10.0453C7.21926 10.0921 7.26126 10.1377 7.30406 10.1817C6.06398 10.9606 4.43359 10.6564 3.55784 9.48272C2.68209 8.30902 2.8547 6.6595 3.95446 5.69253C5.12189 4.67379 6.89377 4.79281 7.91446 5.95853L9.30846 7.49973C9.4299 7.63196 9.47112 7.81915 9.41645 7.99015C9.36179 8.16116 9.21965 8.28974 9.04403 8.32702C8.86842 8.36431 8.68629 8.30458 8.56686 8.17053L7.17006 6.62613L7.16686 6.62293L7.16406 6.61933C6.50715 5.86685 5.36463 5.7893 4.61206 6.44613L4.61166 6.44573Z" fill="white"/>
</svg>
