<svg width="16" height="16" viewBox="0 0 16 16" fill="none" xmlns="http://www.w3.org/2000/svg">
<rect opacity="0.01" width="16" height="16" fill="black"/>
<path fill-rule="evenodd" clip-rule="evenodd" d="M13.4482 3.51747L8.41003 3.517C7.74234 3.51724 7.41158 3.17321 7.08383 2.83231C6.76209 2.49765 6.44324 2.16601 5.81139 2.16602H2.559C1.82641 2.16602 1.23633 2.78488 1.23633 3.51748V12.4155C1.23633 13.1642 1.82639 13.767 2.559 13.767H13.4482C14.1808 13.767 14.7708 13.1482 14.7708 12.4155V4.80427C14.7227 4.05467 14.1808 3.51747 13.4482 3.51747ZM9.93723 9.41681H10.1789V8.93344H5.82858V9.41681H6.07023C6.33744 9.41681 6.55364 9.63302 6.55364 9.90019V11.3503C6.55364 11.6175 6.33744 11.8337 6.07023 11.8337H4.62013C4.35291 11.8337 4.13672 11.6175 4.13672 11.3503V9.90019C4.13672 9.63302 4.35292 9.41681 4.62013 9.41681H4.86178V8.45006C4.86178 8.18288 5.07803 7.96669 5.34519 7.96669H7.27869V7.48331H7.03698C6.76983 7.48331 6.55364 7.26713 6.55364 6.99994V5.54978C6.55364 5.28262 6.76983 5.06641 7.03698 5.06641H8.48714C8.7543 5.06641 8.9705 5.28262 8.9705 5.54978V6.99994C8.9705 7.26713 8.7543 7.48331 8.48714 7.48331H8.24544V7.96669H10.6623C10.9295 7.96669 11.1457 8.18288 11.1457 8.45006V9.41681H11.3874C11.6545 9.41681 11.8708 9.63302 11.8708 9.90019V11.3503C11.8708 11.6175 11.6545 11.8337 11.3874 11.8337H9.93723C9.67008 11.8337 9.45387 11.6175 9.45387 11.3503V9.90019C9.45387 9.63302 9.67008 9.41681 9.93723 9.41681Z" fill="#1773FA"/>
</svg>
