<svg width="16" height="16" viewBox="0 0 16 16" fill="none" xmlns="http://www.w3.org/2000/svg">
<path d="M3.10987 1.96903L1.42237 5.92203C1.38071 6.0157 1.36771 6.11203 1.38337 6.21103C1.39904 6.31003 1.44337 6.39603 1.51637 6.46903L9.53188 14.4845C9.60488 14.5575 9.69088 14.6019 9.78988 14.6175C9.88888 14.6332 9.98521 14.6202 10.0789 14.5785L14.0319 12.891C14.1985 12.818 14.2975 12.6957 14.3289 12.524C14.3602 12.3524 14.3134 12.2039 14.1884 12.0785L12.0319 9.90653C11.9485 9.83353 11.8547 9.7867 11.7504 9.76603C11.646 9.74536 11.547 9.76103 11.4534 9.81303L9.40638 10.8285L5.17188 6.59403L6.18738 4.54703C6.23938 4.45336 6.25504 4.35436 6.23438 4.25003C6.21371 4.1457 6.16688 4.05186 6.09388 3.96853L3.92187 1.81203C3.79687 1.68703 3.64837 1.6402 3.47637 1.67153C3.30437 1.70286 3.18204 1.80186 3.10937 1.96853L3.10987 1.96903Z" fill="#1773FA"/>
</svg>
