<?xml version="1.0" encoding="UTF-8"?>
<svg width="14px" height="14px" viewBox="0 0 14 14" version="1.1" xmlns="http://www.w3.org/2000/svg" xmlns:xlink="http://www.w3.org/1999/xlink">
    <title>女</title>
    <g id="页面-1" stroke="none" stroke-width="1" fill="none" fill-rule="evenodd">
        <g id="客户详情-业务客户" transform="translate(-1241.000000, -1054.000000)" fill="#F95275" fill-rule="nonzero">
            <g id="编组-38" transform="translate(1118.000000, 1045.000000)">
                <g id="女" transform="translate(123.000000, 9.000000)">
                    <path d="M8.21454677,0 C5.01950172,0 2.42909355,2.59040817 2.42909355,5.78545323 C2.42909355,7.15096393 2.90249142,8.40554641 3.69305025,9.39452613 L2.95404961,10.1366515 L1.57916469,8.76176659 C1.33387272,8.51647463 0.932343833,8.51647463 0.688614234,8.76176659 C0.443322267,9.00705856 0.443322267,9.40858745 0.688614234,9.65231705 L2.06193678,11.0256396 L0.183968976,12.9051698 C-0.0613229919,13.1504617 -0.0613229919,13.5519906 0.183968976,13.7957202 C0.429260944,14.0410122 0.830789833,14.0410122 1.07451943,13.7957202 L2.95404961,11.9177524 L4.41486483,13.3785676 C4.66015679,13.6238596 5.06168568,13.6238596 5.30541528,13.3785676 C5.55070725,13.1332757 5.55070725,12.7317468 5.30541528,12.4880172 L3.84460006,11.027202 L4.58203833,10.2897637 C5.57570516,11.0912591 6.83809949,11.5724688 8.21454677,11.5724688 C11.4095918,11.5724688 14,8.98206065 14,5.7870156 C14,2.59197054 11.4111542,0 8.21454677,0 Z M11.4002176,8.97112407 C10.9861898,9.38515191 10.5049801,9.71012471 9.96752504,9.93666825 C9.41288397,10.1710236 8.82387077,10.2897637 8.21454677,10.2897637 C7.60522278,10.2897637 7.01620958,10.1710236 6.46156851,9.93666825 C5.92567586,9.71012471 5.44290377,9.38515191 5.02887593,8.97112407 C4.61484809,8.55709623 4.28987529,8.07588651 4.06333175,7.53843149 C3.82897637,6.98379042 3.71023631,6.39477722 3.71023631,5.78545323 C3.71023631,5.17612923 3.82897637,4.58711603 4.06333175,4.03247496 C4.28987529,3.49658232 4.61484809,3.01381023 5.02887593,2.59978238 C5.44290377,2.18575454 5.92411349,1.86078174 6.46156851,1.63423821 C7.01620958,1.39988282 7.60522278,1.28114276 8.21454677,1.28114276 C8.82387077,1.28114276 9.41288397,1.39988282 9.96752504,1.63423821 C10.5034177,1.86078174 10.9861898,2.18575454 11.4002176,2.59978238 C11.8142455,3.01381023 12.1392183,3.49501995 12.3657618,4.03247496 C12.6001172,4.58711603 12.7188572,5.17612923 12.7188572,5.78545323 C12.7188572,6.39477722 12.6001172,6.98379042 12.3657618,7.53843149 C12.1392183,8.07588651 11.8142455,8.55709623 11.4002176,8.97112407 Z" id="Shape"></path>
                </g>
            </g>
        </g>
    </g>
</svg>